<svg width="372" height="74" xmlns="http://www.w3.org/2000/svg" xmlns:xlink="http://www.w3.org/1999/xlink"><title>Group 42</title><desc>Created with Sketch.</desc><defs><path id="a" d="M0 .782h62.004v35.065H0z"/><path id="c" d="M0 78.731h372.398V.001H0z"/></defs><g fill="none" fill-rule="evenodd"><path d="M290.758 26.43l-.353.18c-.081.042-.312.213-.695.515a6.648 6.648 0 0 1-1.12.737c-.361.19-.734.674-1.118 1.46-.393.787-.584 1.24-.584 1.362 0 .12.059.18.18.18l1.009-.442a4.972 4.972 0 0 0 1.048-.686c.322-.272.786-.605 1.402-.997l.23-.243c.04-.08.223-.221.545-.423.333-.211.575-.413.727-.605l.29-.121c.344-.534.677-.856 1.03-.978.343-.11.514-.231.514-.353 0-.232-.192-.352-.565-.352-.161 0-.393.1-.705.292h-.686c-.07 0-.292.12-.645.353l-.504.12zm-6.23 1.774l.616-.504c.473-.04.725-.282.765-.736.04-.453.364-.846.979-1.18l.352-.503c.292-.292 1.099-.676 2.419-1.15.333-.201.565-.372.686-.534.03-.04.07-.06.11-.06l.475.12c.262 0 .584-.07.987-.21a3.78 3.78 0 0 1 1.169-.203l1.24-.06c.08 0 .243.06.485.182.252.11.544.17.907.17.434 0 .826.203 1.189.596.363.393.544.756.544 1.089 0 .614-.312 1.229-.937 1.864-.635.625-1.13.978-1.512 1.059-.333.332-.585.544-.766.635-.171.09-.353.232-.544.413-.182.19-.343.282-.455.282-.08 0-.14-.02-.18-.07a.217.217 0 0 0-.172-.081c-.322 0-.665.393-1.038 1.159l-.534-.06c-.333.212-.544.453-.646.705-.1.262-.302.384-.625.384-.725.735-1.22 1.098-1.471 1.098-.041 0-.182-.04-.414-.121a.94.94 0 0 0-.231.615c0 .242-.161.383-.475.413l-.382.363-.302-.06-.585.614c-.292 0-.605.1-.917.303-.04.232-.102.534-.172.897-.08.363-.12.565-.12.605 0 .574.523.857 1.56.857l1.423-.212c.373 0 .726-.091 1.048-.292a2.03 2.03 0 0 1 1.049-.293c.12 0 .292-.04.534-.12l.292.12c.142-.292.394-.564.766-.796.373-.242.675-.353.887-.353l.302-.181c.07-.242.193-.393.354-.474l.23-.202c.162-.161.314-.241.445-.241h.414l.12-.061c.232-.514.565-.806.988-.897.424-.091.695-.232.796-.434.11-.191.303-.312.585-.353.272-.04.504-.171.685-.393.192-.232.423-.443.696-.634.282-.203.473-.353.585-.444.1-.101.2-.151.272-.151.466 0 1.015-.807 2.156-1.543.04-.413.729-.654.91-.715.192-.071.334-.151.434-.242a.44.44 0 0 1 .322-.131c.252 0 .383.15.383.443l-.718.767.152.796c0 .12-.091.282-.282.494-.182.2-.333.514-.424.937-.101.423-.232.655-.383.695h-.182c-.352.373-.635.595-.846.666a.932.932 0 0 0-.484.373l-1.008 1.149c-.192.202-.363.373-.505.534-.13.15-.241.232-.322.232l-.231-.232c0-.04-.041-.06-.121-.06-.202 0-.324.12-.373.353-.04.23-.152.443-.303.625-.595.272-.978.523-1.16.766l-.17.06h-.534c-.114 0-2.17 1.413-2.37 1.593-.04.04-.121.08-.261.12-.142.03-.413.192-.827.464-.723.259-3.553 1.582-4.052.918-.121-.151-.192-.233-.233-.233l-.534.172a3.795 3.795 0 0 1-1.118.182c-.202 0-.414-.071-.655-.212a6.705 6.705 0 0 0-.565-.293c-.564 0-.967-.443-1.21-1.33l-.352-.467c-.081 0-.94-.925-.842-2.35-.18-2.318-.197-.745.72-4.148.08-.061.182-.252.304-.585l.674-1.25c.08-.131.252-.473.535-1.028z" fill="#ED5613"/><path d="M268.731 15.559l-.28.077c-.219.11-.116.59-.452 1.28-.103.205-.735.959-1.167 1.766-.592 1.105-1.01 2.31-1.01 2.355 0 .074.08.353.154.353l1.104-1.435c.23-.113.941-1.531 1.147-1.706.2-.168 1.025-1.452 1.405-1.695l.683-.15c.024-.05.321-.747.521-.871.206-.131.54-1.32.633-1.438.726-.254.744-3.061 1.413-3.29.212-.07.574-2.612.574-2.687 0-.143-.99.378-1.22.378-.1 0-1.33 2.587-1.525 2.706l-.876 2.44c-.015.04-.863 1.19-1.08 1.335l-.024.582zm-13.314 14.478l.241-.323c.266-.063.677.22 1.255-.03.535-.23 1.25-.991 1.316-1.127.061-.131.555-.645 1.482-1.532.927-.887 1.442-1.361 1.542-1.422.635-1.14 1.018-1.995 1.16-2.56.231-.121.352-.262.352-.423l.232-.464.262-.06.121-.121v-.263c0-.352.383-1.19 1.15-2.48.775-1.602 1.188-2.48 1.24-2.65.06-.162.181-.414.362-.736.171-.323.444-.948.806-1.875.363-.927.928-1.885 1.704-2.893.07-.04.192-.262.353-.665.151-.403.403-.807.735-1.2l.354-.614c.121-.202.322-.545.625-1.04a9.11 9.11 0 0 1 .805-1.158c.252-.292.435-.585.566-.907.13-.312.281-.534.453-.675.181-.141.363-.393.554-.757.182-.362.474-.544.867-.544.766 0 1.32.312 1.673.948.343.625.514 1.179.514 1.653 0 .06-.12.483-.352 1.27l-.444 2.65c-.393.203-.594.424-.594.687 0 1.038-.404 2.126-1.21 3.245-.08.08-.14.333-.192.766-.05.434-.222.786-.514 1.069-.302.272-.564.735-.796 1.38l-2.752 3.932-.232.242c-.12.07-.262.24-.413.494l-.473.27c-.223 0-.917.553-.72 1.086l-.345.413c-.012.016-.347.176-1.799 2.223-.08.12-.22.504-.413 1.149l-.413.887c-.413.574-.706 1.129-.877 1.663-.16.544-.383.988-.665 1.32-.393.887-.585 1.35-.585 1.39 0 .112.061.173.171.173.121 0 .403-.293.847-.888.444-.584.806-.977 1.09-1.18.281-.19.523-.472.724-.825l.293-.202c.08-.04.252-.161.504-.363l.292.06a.69.69 0 0 0 .292-.412.784.784 0 0 1 .182-.353c.514-.061.827-.242.958-.555.13-.322.282-.474.453-.474.162 0 .363-.181.625-.554.252-.363.615-.655 1.08-.877.462-.232.805-.433 1.027-.605.232-.181.685-.393 1.37-.635.686-.252 1.15-.373 1.392-.373h.171l.242.06.443-.06c.686 0 1.371.192 2.057.575.695.383.987.978.887 1.784l-.232 1.835-.323 1.44c-.04.243-.2.767-.474 1.573-.282.807-.413 1.27-.413 1.38l-.12.566.12.766-.06.625c0 .19.1.292.292.292.081 0 .293-.181.655-.534.212.04.424-.081.615-.352.201-.273.464-.565.797-.857 0-.081.131-.152.383-.222.252-.071.798-.12 1.241-.512.08-.171.486-.532 1.182-1.106 7.49-6.388.925 4.242-1.597 3.876-.413.332-.614.675-.614 1.038-.515.433-.817.716-.918.846l-.595-.05c-.15 0-.23.212-.23.645 0 .04-.203.172-.607.403-.402.223-.715.424-.927.606-.22.17-.675.26-1.39.26-.07 0-.193-.07-.354-.2-.15-.142-.382-.263-.695-.363-.303-.091-.514-.322-.625-.686-.12-.373-.252-.655-.394-.856-.13-.212-.2-.373-.2-.494l.06-.585-.152-.625.273-.413c-.12-.272-.182-.464-.182-.555l.292-1.804c.222-1.3.394-2.147.535-2.54.04-.04.06-.151.06-.353l-.06-.736.06-.413c0-.292-.1-.453-.292-.474-.202-.02-.322-.07-.362-.141-.252-.121-.405-.181-.445-.181-.15 0-.292.12-.413.373-.11.242-.272.464-.473.655l-.737-.111v.06c0 .152-.26.464-.796.908a2.473 2.473 0 0 0-1.27.776c-.16 0-.433.15-.816.454-.383.302-.635.473-.756.514l-.232.473-.473.15c-.142.394-.464.646-.979.768l-.292.554c-.413.04-.705.252-.856.635-.162.393-.283.585-.353.585a.461.461 0 0 1-.192-.081.524.524 0 0 0-.252-.071c-.433 0-.675.323-.716.978 0 .07-.402.535-1.209 1.38-.807.848-1.24 1.28-1.3 1.302-.06.02-.172.222-.344.605-.16.382-.392.665-.695.856a15.73 15.73 0 0 0-.665.454c-.142.12-.262.18-.333.18-.413 0-.756-.291-1.008-.886-.26-.585-.383-.897-.383-.917l.171-.615-.059-.534c0-.02.131-.413.372-1.2.252-.776.524-1.381.846-1.824.313-.444.555-1.17.737-2.178-1.572 1.055-2.917 1.833-3.624 1.655-.339-.086-.532-.176-.532-.971 0-.55.085-.46.29-.94.147-.35.744-1.286 1.003-1.6zM204.508 26.837l-.354.183c-.08.04-.312.21-.695.514a6.736 6.736 0 0 1-1.118.736c-.363.19-1.012.4-1.395 1.186-.393.785-1.226 2.416-1.226 2.538 0 .12.059.181.18.181l1.65-.961c.374-.181.992-.787 1.324-1.07.323-.272.786-.604 1.402-.997l.232-.243c.04-.08.222-.221.544-.424.333-.21.574-.413.726-.604l.292-.122c.342-.534.675-.856 1.028-.978.343-.11.514-.23.514-.352 0-.232-.191-.352-.564-.352-.161 0-.394.1-.706.291h-.686c-.07 0-.292.122-.644.354l-.504.12zm-6.23 1.774l.615-.503c.473-.04.725-.282.766-.736.04-.453.363-.846.978-1.18l.352-.503c.293-.293 1.099-.675 2.419-1.15.333-.202.565-.373.686-.535a.14.14 0 0 1 .11-.06l.475.122c.262 0 .585-.07.987-.211a3.784 3.784 0 0 1 1.17-.203l1.239-.06c.08 0 .243.06.485.181.252.11.544.172.907.172.434 0 .826.201 1.189.595.364.393.544.756.544 1.088 0 .614-.312 1.23-.937 1.864-.635.625-1.13.979-1.512 1.06-.333.332-.585.544-.765.634-.172.09-.353.233-.545.413-.182.192-.343.282-.454.282-.081 0-.141-.02-.181-.07a.214.214 0 0 0-.172-.08c-.322 0-.665.392-1.038 1.159l-.534-.06c-.332.212-.544.453-.645.705-.101.262-.303.384-.625.384-.725.735-1.22 1.098-1.472 1.098-.041 0-.181-.04-.413-.122a.941.941 0 0 0-.232.615c0 .242-.161.384-.474.413l-.382.363-.303-.06-.585.616c-.292 0-.605.1-.917.302-.04.232-.101.534-.171.897a6.605 6.605 0 0 0-.121.605c0 .573.524.856 1.562.856l1.42-.212c.374 0 .727-.09 1.05-.291a2.023 2.023 0 0 1 1.048-.293c.12 0 .292-.04.534-.12l.293.12c.14-.293.393-.565.766-.797.373-.242.675-.352.886-.352l.303-.181c.07-.242.192-.393.353-.474l.232-.203c.16-.16.312-.24.443-.24h.414l.12-.062c.232-.514.565-.805.988-.896.424-.091.696-.232.797-.434.11-.191.302-.313.584-.352.93-.306.865-.138.907-.152l1.33-.857c.04-.412.162-.654.344-.715.19-.07.332-.151.433-.241a.44.44 0 0 1 .323-.133c.252 0 .383.152.383.444l-.152.767.152.796c0 .121-.091.282-.283.493-.181.203-.333.515-.423.939-.1.413-1.388 1.199-1.925 1.199-.201 0-.323.12-.373.352-.04.232-.152.444-.302.626-.595.272-.98.524-1.16.766l-.171.06h-.534c-.262 0-.434.192-.535.575-.1.383-.373.603-.836.664-.464.06-.796.172-.997.353-.042.04-.122.081-.263.121-.141.03-.413.192-.826.464l-2.481.887c-.201.102-.332.152-.392.152l-.827.12c-.111 0-.232-.08-.353-.242-.121-.15-.192-.231-.232-.231l-.534.172c-.393.12-.766.18-1.12.18-.2 0-.412-.07-.654-.212a6.093 6.093 0 0 0-.565-.291c-.564 0-.967-.444-1.21-1.33l-.352.058c-.08 0-.343-.695-.796-2.096-.121-.15.432-1.005.169-1.066-.252-.07-.383-.263-.383-.585 0-.877-.543-.738-.16-1.05.384-.302.596-.533.636-.695l.413-1.532c.08-.06.18-.253.303-.585l.674-1.25c.08-.131.253-.474.536-1.029zM158.84 26.837l-.353.183c-.08.04-.312.21-.695.514a6.7 6.7 0 0 1-1.119.736c-.363.19-.736.675-1.119 1.46-.393.787-.585 1.24-.585 1.361s.061.182.182.182l1.008-.444a4.87 4.87 0 0 0 1.048-.686c.322-.271.786-.604 1.401-.997l.232-.242c.041-.08.222-.221.544-.424.333-.21.575-.413.727-.604l.291-.122c.343-.534.676-.856 1.03-.978.341-.11.513-.23.513-.352 0-.232-.192-.352-.565-.352-.16 0-.393.1-.706.291h-.685c-.07 0-.292.122-.645.354l-.504.12zm-6.229 1.774l.615-.503c.473-.04.725-.282.766-.736.04-.453.363-.846.977-1.18l.353-.503c.43-.43 3.113-1.77 3.69-1.623.262 0 .584-.07.987-.211a3.78 3.78 0 0 1 1.17-.203l1.24-.06c.08 0 .242.06.483.181.252.11.544.172.907.172.434 0 .827.201 1.19.595.363.393.544.756.544 1.088 0 .614-.312 1.23-.937 1.864-.635.625-1.129.979-1.512 1.06-.333.332-.585.544-.766.634a2.6 2.6 0 0 0-.545.413c-.18.192-.342.282-.453.282-.08 0-.142-.02-.182-.07a.213.213 0 0 0-.17-.08c-.324 0-.667.392-1.039 1.159l-.534-.06c-.333.212-.545.453-.646.705-.1.262-.302.384-.625.384-.33.335-2.57 2.003-2.59 2.004l-.383.363-.303-.06-.584.616c-.292 0-.605.1-.918.302-.04.232-.1.534-.17.897a6.605 6.605 0 0 0-.122.605c0 .573.524.856 1.562.856l1.422-.212c.373 0 .726-.09 1.048-.291a2.026 2.026 0 0 1 1.048-.293c.122 0 .293-.04.535-.12l.292.12c.141-.293.393-.565.766-.797.373-.242.675-.352.887-.352l.302-.181c.071-.242.192-.393.353-.474l.232-.203c.161-.16.313-.24.444-.24h.413l.121-.062c.232-.514.565-.805.988-.896.423-.091.695-.232.796-.434.111-.191.303-.313.585-.352.272-.042.504-.172.685-.394.511-.617 2.151-1.841 2.38-1.915l1.33-.857c.04-.413.161-.654.342-.715a1.33 1.33 0 0 0 .434-.242.443.443 0 0 1 .322-.131c.252 0 .383.15.383.443l-.15.767.15.796c0 .12-.09.282-.28.494-.183.202-.334.514-.425.937-.1.424-.232.655-.383.695h-.182c-.352.373-.635.595-.846.665a.937.937 0 0 0-.484.373l-1.008 1.15c-.192.202-.363.373-.504.535-.13.15-.242.23-.323.23l-.232-.23c0-.041-.04-.062-.12-.062-.202 0-.323.122-.373.354a1.359 1.359 0 0 1-.303.625c-.595.272-.978.524-1.159.766l-.172.06h-.534c-.262 0-.433.192-.534.575-.1.383-.373.603-.837.664-.463.06-.796.172-.997.353-.04.04-.122.081-.263.121-.14.03-.413.192-.826.464l-2.48.887c-.202.102-.332.152-.393.152l-.827.12c-.11 0-.232-.08-.353-.242-.12-.15-.19-.231-.23-.231l-.536.172c-.392.12-.765.18-1.118.18-.202 0-.413-.07-.656-.212a6.229 6.229 0 0 0-.564-.291c-.565 0-.967-.444-1.21-1.33l-.352.058c-.08 0-.343-.695-.797-2.096a.98.98 0 0 0-.564-.332c-.252-.07-.383-.262-.383-.584 0-.878.191-1.473.574-1.785.383-.302.595-.533.635-.695l.414-1.532c.08-.06.181-.253.302-.585l.675-1.25c.081-.131.252-.474.535-1.029zM66.864 33.017c.07-.433.312-.766.726-.988.403-.232.645-.453.715-.696.383-.272.918-.765 1.613-1.481.706-.706 1.049-1.14 1.049-1.291 0-.06-.041-.09-.111-.09h-.061l-.242.14-.524-.05-.564.05-.413-.2-.384.06-.595-.121a1.64 1.64 0 0 0-.816.19c-.222.132-.655.273-1.3.435a4.594 4.594 0 0 0-1.724.806c-.514.383-.887.575-1.13.575-.14.303-.593.725-1.39 1.27-.474.16-.776.504-.917 1.038-.504.414-.766.645-.766.706l-.202.503a1.96 1.96 0 0 1-.594.343c-.232.09-.373.293-.414.615-.04.333-.171.625-.403.888-.222.272-.333.484-.333.634 0 .968.182 1.452.555 1.452.16 0 .494-.101.997-.312.495-.202.787-.343.867-.424.08-.081.242-.161.474-.242l.565-.292a.5.5 0 0 1 .262-.151.508.508 0 0 0 .292-.192c.1-.111.283-.221.535-.353.26-.131.453-.302.594-.513.333-.202.877-.505 1.623-.918l.625-.474c.433-.201.695-.363.796-.503.1-.142.293-.273.595-.414m9.808-.01l.463-.413c.303 0 .475-.131.535-.393.06-.263.272-.474.634-.636.364-.161.696-.473 1.009-.957.322-.484.645-.726.978-.726.11 0 .252.1.413.293.15.2.232.352.232.473 0 .655-.202 1.32-.595 2.006l-.111.826-.212.393c-.292.152-.484.323-.574.495-.091.18-.323.393-.696.655l-.292.413c-.433.142-.726.363-.867.676-.151.322-.353.493-.625.534-.262.04-.554.23-.867.594a5.506 5.506 0 0 1-.705.263l-.061.292c-.201.2-.504.352-.927.473-.424.122-.746.232-.948.343-.212.112-.353.16-.433.16-.373 0-.716-.07-1.028-.22a3.027 3.027 0 0 0-.978-.283.709.709 0 0 1-.202-.382c-.02-.141-.12-.323-.292-.545-.181-.232-.272-.534-.272-.927l.12-.564c0-.082-.05-.182-.151-.293-.09-.121-.141-.222-.141-.302a.24.24 0 0 1 .06-.172c.03-.04.052-.1.052-.181 0-.091-.021-.202-.051-.323a.95.95 0 0 1-.061-.292l.172-1.451c0-.111-.04-.172-.111-.172-.081 0-.222.09-.433.292a.98.98 0 0 1-.726.292c-.152.122-.283.364-.383.747a2.54 2.54 0 0 1-.595.524l-.111.18c-.04.143-.192.253-.444.344-.261.08-.433.202-.534.333l-.292.302-.565-.06c-.04.04-.151.212-.322.514a2.482 2.482 0 0 1-.685.756l-2.238 1.824c-.242.162-.585.363-1.038.595l-.182.18c-1.572 1.039-2.681 1.564-3.336 1.564-.535 0-1.15-.152-1.855-.444-.716-.292-1.1-.645-1.16-1.058l-.292-1.22c-.181-.271-.262-.655-.262-1.15 0-.231.02-.392.06-.473v-.171l-.06-.978c0-.242.182-.352.554-.352l-.06-.797c0-.081.182-.393.524-.937.343-.545.575-.847.696-.928l.293-.383c-.021-.242.12-.494.413-.756.292-.262.534-.534.705-.816.18-.272.514-.575 1.008-.907l.887-.888a8.953 8.953 0 0 1 2.248-1.653c.12-.04.363-.242.726-.594a3.513 3.513 0 0 1 1.24-.787 7.43 7.43 0 0 0 1.36-.635c.444-.252.797-.382 1.049-.382h.242c.08 0 .594-.243 1.562-.737h.18c.082 0 .263.08.566.232h.05l.474-.232a.682.682 0 0 1 .303-.06c1.219 0 1.885.847 2.005 2.54.04.353.142.534.303.534.19 0 .474-.363.836-1.078.364-.716 1.139-1.08 2.319-1.08.846 0 1.27.546 1.27 1.624 0 1.28-.565 2.49-1.714 3.629-.08.16-.131.342-.171.534l-.413 1.21v.06c0 .12-.091.283-.252.484-.172.212-.253.393-.253.554l.06.736-.12.827c0 .373.07.615.212.736.625-.161 1.078-.413 1.36-.787.283-.363.485-.564.606-.604l.292-.111c.18-.302.383-.545.625-.746" fill="#ED5613"/><path fill="#ED5613" d="M83.415 27.785l.655-.12.413-.414.555-.262.594-.888.615-.534.564-.17.736.12.686.171 1.12 1.27.321.504.242.625.061.525-.12 1.683-.414.826.171.303.151.02h.121l.201-.11.474-.384.595-.332.947-1.059.938-.413.474-.383.353-.444.655-.383.584-.534.656-.15 1.824-.969.746-.212 1.028-.352h.031l1.038.262.524.211.947.645.293.444.302.857.232.625-.06.645.09.564.061.474-.06.474-.182 1.15-.08 1.773-.596.887-.03.171.03.152.031.09.443.645.323.918.181.121.091.03.585-.18.625-.183.352-.554.646-.353.151-.333.503-.473.555.181.121-.534.212-.232.705-.948.827-.383 1.482-1.149.493-.353.741-.552.634 1.88-.306.527-.715.917-1.29 1.24-.828.948-.09.06-.504.172-.827.655-1.038.917-.262.645-.676.06-.473.676-.746.353-.827.564-.826-.09-.706.09-.978-.564-.554-.17-.292-.183-.867-1.18-.353-.594-.322-.826.03-.11.181-.798-.272-.826-.03-.505-.172-.473.202-.323-.06-.332.06-1.704-.03-.716-.03-.917-.08-.202-.274-.26-.23-.092-.062.03-2.066 1.18-1.209.503-.565.414-.172.292-2.903 2.39-.907.715-.655.201-.12.272-.082.645-.534.293-.655.655-.383-.353-.232.021-.322.564-.303.705-.796.151-.14.504-.445.061-.473.263-.625.594-.474.675-.585-.23-.826-.415-.414-.624-.242-1.12.363-2.51.413-.595.555-.262.151-.715.534-.383.646-.857.594-.11.111-.767.917-1.714.152-.685-.888.796-.534.061-.564.766-.494-.06-.444.473-1.36.716-.383.675-1.12.565-.393-.303-.26-.383-.062-.292.766-2.157.393-.504 1.593-.968.524-.474z"/><path fill="#ED5613" d="M111.33 30.416l.337-.474.766-.594 2.016-1.654 1.764-.857.364-.493.614-.384.624-.594 1.03-.706.916-.473.323-.03.826.231 1.008.826.584.716.273.968-.242 1.361-.585 1.653-.444 1.391-.383.383-.24.584-.353.394.15.856-.352.555-.03 1.33-.354.384.112.211.474-.15h.856l.383-.475.626-.292.412-.353 1.441-.655 4.527-3.478.494.111.15.182.06.292.374.602-.5 1.081-.94.948-.526.564-.353.495-.474.302-.625.584-.765.534-1.503 1.361-.806.444-.352.464-.797.211-.412.384-.413.322-.535.182-.645.06-.626.554-.734.03-.474.121h-.061l-.707-.292-.412-.272-.585-.525-.09-.27-.092-1.24-.262-.939-.12-.857.09-.594.413-1.42.141-.939.272-.272.383-1.33.445-.646.17-.736.504-1.038-.15-.262-.263-.06-.614.383-.444-.09-.474.412-.442.121-.566.413-.444-.21-.291.15-.243.796-.11.091-.796.292-.687.242-.322.736-.565.474-.352.322-.323.091-.382-.12-.243-.232-.08-.334v-.08l-.344-.673zM124.718 13.85h.121l.554.203.716.473.494.595.181.554-.03.182-.12.796-.172 1.089-.09.09-.656.504-.414.212-.292.02-1.149-.433-.655-.595-.292-1.532v-.121l.242-1.18.231-.322.706-.302zM175.324 26.681l.615-1.235c.08-.312.343-.685.777-1.129.433-.443.735-.665.906-.665h.243c0-.14.03-.282.09-.413.06-.14.09-.333.09-.565 0-.12.263-.443.797-.977l.232-.524c.182-.514.625-.938 1.33-1.27.273-.575.484-.858.615-.858l.242-.06a1.67 1.67 0 0 1 .474-.796l.11-.182v-.473c0-.04.142-.202.404-.484.262-.283.454-.555.575-.797.12-.252.282-.443.483-.574.212-.14.353-.393.434-.746l.474-.06c0-.253.02-.424.06-.495l.06-.302c.092-.232.434-.856 1.029-1.854l.474-1.1c0-.11.08-.26.252-.422.16-.172.252-.414.252-.727l.232-.977c0-.454-.082-.675-.232-.675-.202.14-.383.231-.545.292-.171.06-.332.413-.494 1.068-.584.131-.927.414-1.018.837-.09.423-.332.786-.725 1.08l-.202.351c-.04.222-.232.444-.565.686-.332.232-.644.635-.947 1.21-.978 1.36-1.522 2.086-1.623 2.187-.26.313-.733 1.106-.796 1.16a.997.997 0 0 0-.262.402c-.061.161-.182.343-.353.545-.181.211-.343.543-.494 1.007-.141.464-.272.736-.393.807l-.413-.05c-.263.151-.383.312-.383.463l.08.413c0 .081-.051.182-.161.282-.101.112-.212.323-.303.636-.1.322-.352.796-.745 1.431a9.398 9.398 0 0 0-.928 2.046c-.222.716-1.154 1.881-1.375 2.082.04.04.1.06.18.06.253 0 1.216-.11 1.447-.635m-5.998 6.95v-.21c0-.274.02-.485.06-.647a2.416 2.416 0 0 1-.18-.856c0-.04.1-.313.302-.827l.262-.917c.14-.353.222-.545.232-.555-.111-.322-.171-.494-.171-.534 0-.453.13-.826.383-1.129.252-.292.473-.705.645-1.239l.594-1.795.978-2.368c.02-.06.11-.212.282-.475.162-.252.303-.473.414-.654.1-.192.252-.464.453-.817l.293-.06c.08-.08.12-.162.12-.232 0-.04-.04-.202-.12-.474l1.038-1.714.615-1.27c.2-.333.413-.554.655-.655.393-.726.736-1.169 1.028-1.32.12-.373.343-.787.656-1.21l.554-.06c.1-.283.2-.484.302-.625l.06-.585c0 .111.04.081.142-.11.1-.183.252-.535.443-1.05l.796-.916.243-.414c.09-.13.252-.403.473-.796.293-.11.535-.333.736-.645l.615-.504c-.04-.212.2-.696.716-1.442.332-.14.635-.323.917-.534l.413-.12c0-.687.242-1.16.736-1.422l.353-.232c.313-.162.494-.232.534-.232l.202-.06c.242-.08.514-.12.826-.12.726 0 1.392.271 1.976.815.594.534.887 1.15.887 1.845 0 .272-.141.554-.444.857l-.11.232c-.283 1.078-.474 1.622-.595 1.622-.08 0-.182.061-.322.182-.041.645-.081 1.008-.121 1.088-.353.061-.535.505-.535 1.331-.03.121-.181.322-.423.605-.242.282-.444.675-.575 1.18-.141.503-.282.755-.443.755h-.323l.08.444c0 .272-.13.544-.392.806-.262.272-.434.554-.484.846-.061.293-.302.646-.716 1.06l-.292.473a3.905 3.905 0 0 1-.474.625c-.192.212-.363.544-.504.998l-.766 1.421c-.534.968-.937 1.421-1.21 1.381-.181.776-.292 1.22-.353 1.33-.06.122-.201.232-.413.333-.221.091-.383.262-.504.514-.121.242-.241.424-.382.545l-.535 1.088c-.312.142-.544.394-.675.776-.313.071-.515.343-.595.797-.081.07-.171.252-.293.524l-1.038 1.038c-2.575 1.832-.505.406-3.154 1.563-.061.272-.202.584-.414.917l.12.796c0 .101-.16.716-.473 1.865.15.292.232.494.232.615l-.06.655.15.796c.102.645.334.968.707.968l.705.121c.04 0 .292-.15.746-.444l1.089-.594c.04 0 .06.02.06.06.192.081.353.121.474.121.19 0 .292-.16.292-.473V35.9c.12-.19.262-.312.423-.353.172-.04.323-.13.464-.26.13-.143.242-.213.323-.213h.292c.292 0 .444-.343.444-1.028a1.13 1.13 0 0 0 .292-.242h.353c.16 0 .332-.192.524-.575.18-.383.312-.615.393-.695.353-.04.605-.1.736-.172.635-1.149 1.119-1.713 1.45-1.713h.173c.332-.323.514-.595.544-.847.03-.242.13-.403.302-.484.162-.08.313-.18.454-.292.14-.12.222-.182.262-.182.302 0 .444.111.444.323l-.081.827.202.887c0 .08-.081.231-.252.463a1.258 1.258 0 0 0-.252.746c0 .574-.101.877-.293.917-.201.041-.363.172-.484.404a1.872 1.872 0 0 1-.634.615 1.818 1.818 0 0 0-.686.816l-.494.121-.302.171c-.232.615-.484.988-.746 1.13-.986.474-.368 1.39-1.553 1.24-.181.311-.352.492-.534.554a.903.903 0 0 0-.443.342c-.111.172-.323.312-.635.433-.303.112-.494.252-.575.413a.435.435 0 0 1-.353.263.806.806 0 0 0-.443.222c-.131.131-.252.191-.353.191a4.7 4.7 0 0 1-.413-.06h-.111c-.343.242-.615.352-.827.352-.262 0-.443.041-.564.121-.121-.08-.303-.14-.545-.18-.252-.032-.524-.132-.846-.293-.333.081-.534.121-.616.121-.332 0-.755-.333-1.27-.988-.513-.666-.765-1.31-.765-1.936 0-.02-.111-.17-.343-.463a1.473 1.473 0 0 1-.332-.928v-.292l.05-.353.06-.745c.06-.434-.173-.412.06-.646"/><path d="M189.018 26.452l.615-.363c.08-.312.343-.685.776-1.13.601-.614 1.588-1.082 1.881-1.72.061-.141.091-.332.091-.564 0-.121.263-.444.797-.978l.232-.524c.181-.514.625-.937 1.331-1.27.271-.575.483-.857.614-.857l.242-.06c.07-.264.781-1.714.987-1.936.263-.282.455-.554.576-.796.121-.252.282-.444.483-.575.425-.282.92-1.061 1.028-1.602.091-.232.434-.857 1.03-1.855l.472-1.1c0-.11.081-1.041.252-1.202.161-.172.252-.413.252-.726l.232-.977c0-.454-.08-.676-.232-.676a2.413 2.413 0 0 1-.544.292c-.172.06-.333.414-.494 1.069-.585.13-.928 1.193-1.018 1.616-.09.424-.332.787-.726 1.079l-.2.353c-.04.222-.233.443-.566.685-.333.232-.645.635-.947 1.21-.978 1.36-1.522 2.086-1.623 2.187l-.293.353-.443-.06c.081.312.121.493.121.534 0 .11-.06.232-.182.332-.12.11-.2.242-.262.404-.06.16-.18.342-.352.544-.182.21-.343.544-.494 1.008-.142.464-.273.736-.394.806-.768.45-.838.197-.715.827 0 .08-.05.18-.162.282-.1.11-.212.323-.302.635-.1.323-.352.797-.746 1.43-.393.646-1.338 1.964-1.569 2.69-.222.716-.443 1.169-.665 1.37.04.04.101.06.182.06.252 0 .504-.271.735-.795zm-5.356 7.18v-.212c0-.272.021-.484.061-.645a2.424 2.424 0 0 1-.182-.857c0-.04.101-.312.303-.826l.262-.917c.141-.353.222-.545.232-.555-.11-.323-.172-.494-.172-.534 0-.454.131-.827.383-1.13.253-.292.474-.705.645-1.24l.595-1.793.978-2.37c.021-.06.111-.211.282-.473.161-.252.303-.474.413-.655.101-.192.252-.464.454-.817l.292-.06c.081-.081.122-.161.122-.232 0-.04-.04-.201-.122-.473l1.04-1.714.614-1.27c.201-.333.413-.555.655-.656.393-.726.735-1.168 1.028-1.32.12-.373.342-.786.656-1.21l.553-.06c.101-.282.202-.484.303-.625l.061-.585c0 .11.04.08.14-.111.101-.181.252-.534.444-1.048l.796-.917.243-.414c.09-.13.252-.402.473-.795.292-.112.534-.333.736-.646l.615-.504c-.04-.212.201-.696.716-1.441.332-.141.634-.323.917-.534l.413-.122c0-.685.242-1.16.736-1.42l.353-.232c.312-.162.494-.232.534-.232l.201-.061c.242-.08.515-.121.827-.121.726 0 1.391.272 1.976.816.594.535.886 1.15.886 1.845 0 .273-.14.554-.443.857l-.11.232c-.282 1.079-.475 1.623-.595 1.623-.08 0-.182.06-.323.18-.04.646-.08 1.009-.12 1.09-.354.06-.536.504-.536 1.33-.03.12-.18.323-.422.605-.243.282-.444.675-.576 1.18-.14.504-.28.756-.443.756h-.322l.08.443c0 .273-.13.544-.393.806-.26.273-.433.555-.483.847-.06.293-.303.645-.716 1.058l-.292.474a3.905 3.905 0 0 1-.474.625c-.192.212-.363.545-.504.998l-.766 1.422c-.534.967-.938 1.42-1.21 1.38-.182.776-.292 1.22-.353 1.33-.06.122-.202.233-.413.333-.22.09-.383.263-.505.515-.12.242-.24.423-.382.544l-.534 1.089c-.313.14-.544.393-.675.776-.313.07-.515.343-.595.796-.08.07-.172.252-.293.524l-1.038.396c-1.199-.353-.899 1.516-3.095 1.746l-.06.459c-.06.272-.202.585-.413.917l.121.797c0 .1-.16.715-.474 1.864.151.293.231.494.231.615l-.06.655.151.797c.101.645.333.968.706.968l.705.12c.041 0 .293-.151.747-.443.7-.382 2.006-1.54 2.338-1.623.171-.04.323-.131.464-.262.131-.141.241-.212.323-.212h.292c.292 0 .443-.342.443-1.028.081-.04.182-.121.293-.242h.352c.026 0 1.506-.461 1.828-.634.501-.907 1.938-2.09 1.993-2.542.03-.242.177-.906.35-.987.16-.081.265-.504.406-.615.141-.121.221-.181.262-.181.302 0 .444.11.444.322l-.08.827.201.887c0 .08-.08.232-.252.464a1.248 1.248 0 0 0-.253.746c0 .574-.1.877-.292.917-.2.04-.362.172-.484.403-.13.222-.342.434-.634.615-.303.19-.525.464-.686.817l-.494.12-.303.172c-.23.614-.483.987-.746 1.129-.27.13-.595.544-.987 1.24-.06 0-.09.02-.09.06l-.475-.06c-.18.312-.353.493-.534.554a.9.9 0 0 0-.444.342c-.11.172-.322.313-.635.434-.302.11-.493.252-.574.413a.437.437 0 0 1-.354.263.803.803 0 0 0-.443.22c-.13.132-.252.193-.353.193-.04 0-.17-.021-.413-.061h-.11c-.344.242-.615.353-.827.353-.262 0-.443.04-.565.12-.12-.08-.302-.14-.544-.181-.25-.03-.524-.131-.846-.292-.333.08-.534.12-.615.12-.333 0-.757-.332-1.27-.987-.515-.665-.767-1.31-.767-1.935 0-.02-.11-.171-.342-.464a1.474 1.474 0 0 1-.333-.927v-.292l.05-.353v-.565l.061-.181c.302-.03.443-.071.443-.111l-.383-.534zM298.433 16.699l-.675.978c-.243.07-.334.43-.846.762-.512.33-1.1.448-1.201.619l-.382.18c-.163.082-.637.527-.879.769-.233.252-.474.373-.736.373l-.664.789-.384-.232c-.312.152-.493.232-.524.232-.382 0-.563-.241-.563-.736 0-.292.645-.948 1.371-1.382.1-.352.444-.735 1.038-1.15l.293-.291a1.97 1.97 0 0 1 .594-.625c.212-.131.363-.323.445-.575.07-.242.24-.574.493-.987.262-.413.413-.787.474-1.12.1-.1.232-.302.404-.594.17-.292.483-.444.936-.444.151 0 .272.05.353.152.08.09.151.14.231.14l.876-.961c.988 0 1.483.404 1.483 1.21 0 .11-.192.444-.575.988-.98 1.357-.416 1.55-1.563 1.905M236.322 6.462l.494-.414.595.06c.332 0 .615-.08.856-.261.233-.181.424-.272.576-.292.15-.021.322-.121.534-.303.201-.171.504-.292.896-.363.394-.07.676-.191.858-.373.18-.171.382-.292.604-.343.232-.04.483-.13.786-.241l2.682-.827c.04 0 .151.03.332.11h.111c.242 0 .474-.09.696-.281.232-.181.494-.272.816-.272.191 0 .575-.121 1.15-.363l.17.18c.323-.352.585-.533.807-.533h.172c.04 0 .221.04.534.12.493-.16.896-.231 1.21-.231l.675-.06c.04 0 .1.02.181.06.161-.181.373-.292.645-.333h.333l1.21-.292.352.12c.232-.201.595-.291 1.088-.291h.303l.292.05c.041 0 .222-.05.545-.171.322-.122 1.118-.182 2.38-.182l.764.122c.495-.203.756-.293.797-.293l.826.17.323-.11h.121c.041 0 .141.03.293.11h.06l2.127-.291c.04 0 .12.02.242.06.151-.141.272-.211.353-.211l.554.15c.161 0 .433-.11.827-.321l.181.17 2.006-.231.746.06.645-.12c.645 0 1.14.17 1.461.514.323.352.484.695.484 1.048l.121.917-.18.504-.052.595c-.1.232-.252.393-.443.473 0 .04-.09.08-.272.132a1.77 1.77 0 0 0-.524.252c-.182.11-.766.17-1.744.17-.495 0-.807-.15-.948-.453-.13-.302-.282-.483-.443-.514l-1.27-.534c-.04-.04-.152-.06-.353-.06h-.23l-1.21.12a2.02 2.02 0 0 1-.324-.06c-.262.12-.393.17-.414.17l-2.187-.11-.887.06-.614-.12c-.08 0-.222.03-.414.09-.2.06-.615.1-1.24.142-.634.04-.948.242-.948.595 0 .21.081.453.252.705.162.263.252.464.252.625-.302.413-.442.676-.442.797-.08.06-.223.18-.414.382-.202.192-.565.505-1.099.928-.523.424-.887.817-1.089 1.169-.19.353-.432.534-.705.534-.353.333-.605.636-.736.908l-.24.242c-.042.04-.062.13-.062.26a.473.473 0 0 1-.172.355l-.27.715c-.133.06-.536.565-1.21 1.533l-.354.18-.353.414h-.413c-.17 0-.262.11-.262.353l.121.857c-.303.252-.534.594-.716 1.028l-.352.594c-.415.414-.616.636-.616.676 0 .1-.2.524-.594 1.27l-.06.293c0 .342-.687 1.3-2.067 2.902-.192.373-.313.938-.353 1.704-.585 1.169-.988 1.724-1.21 1.683-.04.756-.16 1.36-.373 1.835a44.86 44.86 0 0 0-.796 2.087c-.323.906-.665 1.562-1.018 1.955l-.12.242a2.763 2.763 0 0 1-.293.473c-.04.524-.222 1.37-.565 2.54l-.17 1.27-.596 1.654a.74.74 0 0 0-.09.352c0 .08.07.232.191.454.131.232.191.444.191.635 0 .282-.04.504-.14.665-.102.172-.152.394-.152.666 0 .615-.323 1.018-.978 1.209h-.23l-.617.06c-.836 0-1.582-.392-2.248-1.178-.675-.787-1.008-1.875-1.008-3.246 0-.081.061-.383.182-.907.121-.525.182-.857.202-1.018.02-.152.071-.323.151-.484.081-.172.121-.414.121-.726 0-.968.242-1.804.715-2.51.484-.706.807-1.22.968-1.532.04-.141.101-.232.202-.272a1.611 1.611 0 0 1-.09-.585c0-.574.251-1.038.745-1.391.041-.161.101-.343.202-.544.1-.212.302-.706.625-1.512.312-.797.725-1.26 1.24-1.401-.02-.041.09-.192.353-.474l-.12-1.028c0-.162.18-.424.533-.797l.504-.826c.081-.333.333-.645.765-.917.121-.202.242-.313.384-.353.02-.081.101-.323.252-.736s.463-.938.947-1.552c.474-.625.938-1.27 1.381-1.936.443-.665.847-1.018 1.21-1.038.372-.021.574-.222.614-.615l.172-1.1c.574-.482.917-.835 1.038-1.027l.413-.473c.071-.273.182-.454.303-.545.131-.091.292-.272.493-.544.193-.282.445-.525.737-.746.252-.807.837-1.502 1.744-2.097l.473-.494c.333-.473.605-.796.827-.967a1.54 1.54 0 0 0 .484-.656c.11-.282.322-.483.635-.625.312-.141.473-.292.473-.473 0-.081-.08-.121-.23-.121-.162 0-.425.06-.808.18h-.23l-.536.122h-.17l-.505-.121c-.353.12-.635.18-.827.18-.04.032-.17.122-.383.264h-.655l-.353.353-.262.06-.766-.121c-.24 0-.524.12-.857.353 0 .04-.322.11-.967.21a7.041 7.041 0 0 0-1.815.546c-.564.262-.917.403-1.028.403l-.534-.121h-.06c-.253 0-.495.13-.706.383-.222.252-.535.413-.948.474h-.353c-.292 0-.695.11-1.199.353-.504.232-.766.353-.807.353l-.534-.061c-.242.16-.443.272-.604.323-.172.06-.333.16-.494.282a1.555 1.555 0 0 1-.474.282c-.152.06-.333.17-.545.323-.2.16-.373.24-.483.24h-.122l-.352-.06c-.142 0-.322.122-.534.364-.222.252-.424.403-.605.464-.192.06-.363.15-.535.282a1.152 1.152 0 0 1-.514.222c-.1.09-.242.312-.413.645a3.02 3.02 0 0 1-.685.866c-.273.252-.454.444-.544.575-.09.14-.172.212-.253.212-.968 0-1.45-.605-1.45-1.805l.593-1.27c.414-.998 1.04-1.612 1.885-1.824.222 0 .777-.222 1.684-.655l1.16-.504zM362.172 26.713l-.354.182c-.08.04-.312.211-.695.514a6.736 6.736 0 0 1-1.118.736c-.363.191-.736.675-1.12 1.461-.393.787-.584 1.24-.584 1.361s.06.182.182.182l1.007-.444a4.904 4.904 0 0 0 1.048-.685c.323-.273.787-.605 1.402-.998l.232-.243c.04-.08.222-.221.544-.422.333-.212.574-.414.726-.605l.292-.122c.342-.534.675-.856 1.028-.977.343-.111.514-.232.514-.353 0-.232-.191-.353-.564-.353-.161 0-.394.101-.706.292h-.686c-.07 0-.292.121-.644.353l-.504.121zm-5.946 1.774l.615-.503c.474-.041.726-.283.766-.736.04-.454.363-.847.977-1.18l.354-.504c.292-.292 1.098-.675 2.419-1.149.333-.202.564-.373.685-.535.03-.04.07-.06.11-.06l.474.121c.263 0 .585-.07.988-.211a3.778 3.778 0 0 1 1.169-.202l1.24-.061c.082 0 .243.061.484.182.252.111.545.171.907.171.434 0 .827.202 1.19.595.363.393.545.756.545 1.089 0 .614-.313 1.23-.938 1.864-.635.625-1.13.978-1.513 1.059-.332.332-.584.544-.765.635-.171.09-.353.232-.544.413-.182.192-.343.282-.454.282-.081 0-.141-.02-.182-.07a.213.213 0 0 0-.171-.081c-.323 0-.665.393-1.038 1.159l-.534-.06c-.333.212-.545.453-.646.705-.1.262-.302.384-.625.384-.725.735-1.22 1.098-1.471 1.098-.04 0-.182-.04-.413-.121a.936.936 0 0 0-.232.615c0 .242-.162.383-.474.413l-.383.363-.303-.06-.584.615c-.292 0-.605.1-.917.302-.041.232-.102.534-.172.898a6.55 6.55 0 0 0-.121.604c0 .575.524.857 1.563.857l1.42-.212c.374 0 .727-.091 1.049-.292.438-.26 1.395-.491 1.875-.292.033-.068.086-.265 1.448-.831.334-.14.03-.404.739-.557.424-.09.18-.349.28-.551.11-.191.303-.312.585-.352.273-.04.504-.172.686-.393.19-.232.422-.444.695-.635a11.5 11.5 0 0 0 .585-.444c.1-.101.207-.163.272-.151.94.176-.104-.384 1.33-.846l.827-.696c.04-.414.162-.656.342-.716.193-.071.333-.151.434-.242a.441.441 0 0 1 .323-.131c.252 0 .383.151.383.444l-.151.766.15.796c0 .121-.09.282-.281.494-.182.201-.333.514-.424.937-.101.424-.231.656-.383.696h-.181c-.353.373-.635.594-.847.665a.935.935 0 0 0-.484.373l-1.007 1.149c-.193.202-.364.373-.505.534-.131.152-.241.232-.323.232l-.231-.232c0-.04-.041-.06-.121-.06-.202 0-.323.121-.373.353a1.34 1.34 0 0 1-.303.625c-.595.272-.977.524-1.16.766-.31.109-.82.498-1.938.916-.485.181-1.19.265-1.87.508-.201.1-.332.151-.392.151l-.826.121c-.112 0-.232-.081-.353-.242-.121-.151-.192-.232-.232-.232l-.535.171a3.796 3.796 0 0 1-1.12.182c-.2 0-.412-.07-.653-.212a6.65 6.65 0 0 0-.564-.292c-.566 0-.968-.443-1.21-1.331l-.353-.689c-.081 0-.343-.461-.797-1.862-.344-.431-.167-1.572-.293-1.828-.54-1.094.197.383.555-1.054l.414-1.532c.08-.06.18-.252.302-.585l.676-1.249c.08-.132.25-.474.534-1.029z" fill="#ED5613"/><path d="M340.357 25.622l.444-.12.171-.384c.968-.575 1.654-1.109 2.067-1.623.04-.08.131-.16.272-.242.131-.07.282-.212.443-.413.726-.726 1.593-1.089 2.591-1.089 1.19 0 1.814.716 1.895 2.157l.171.444c.162.272.384.836.666 1.683.292.847.432 1.361.432 1.563 0 .534-.17 1.058-.504 1.592-.27.141-.937.877-1.974 2.218l-.303.201a5.735 5.735 0 0 1-.615 1.06c-.393.14-.595.291-.595.442v.534c0 .041-.04.122-.13.243-.092.11-.213.342-.364.675l-.24.353c-.082.081-.162.242-.234.483a2.08 2.08 0 0 1-.342.666c-.152.202-.222.352-.222.474 0 .292.384.443 1.15.443.04 0 .191-.06.443-.18l.413.12c.041 0 .141-.06.293-.192.161-.13.403-.232.725-.313a2.5 2.5 0 0 0 .857-.352c.252-.15.544-.293.886-.414a2.85 2.85 0 0 0 .99-.574c.311-.262.624-.454.927-.575.312-.12.594-.302.856-.544.272-.242.564-.474.907-.695.333-.212.857-.686 1.593-1.412.474-.373.796-.584.968-.625.04 0 .212-.262.523-.776.303-.524.646-.786 1.05-.786.412 0 .614.202.614.595 0 .212-.1.423-.293.614v.182l.061.474c.03.05.051.141.051.262 0 .081-.07.191-.222.353a1.424 1.424 0 0 0-.303.604c-.06.252-.252.414-.564.484-.12.434-.273.686-.453.746-.193.061-.455.252-.788.585-.332.332-.805.726-1.41 1.18-.615.453-1.039.806-1.26 1.048-.222.252-.383.373-.454.373-.04 0-.12-.04-.242-.12-.11-.082-.19-.112-.232-.112-.12 0-.2.131-.24.413l-.113.293c-.26.151-.403.231-.443.231l-.182-.06h-.12c-.232 0-.353.09-.353.271l.181.293v.061c0 .271-.16.413-.473.413-.212 0-.847.362-1.885 1.088l-.858.182-.715.383c-.232-.14-.383-.21-.444-.21l-.464.15-.856.06c-.02 0-.383-.202-1.078-.594-.706-.394-1.119-.787-1.26-1.18a8.089 8.089 0 0 0-.524-1.189c-.222-.404-.333-.686-.333-.847 0-.948.081-1.613.242-2.016.151-.413.252-.706.292-.907.041-.192.151-.404.343-.636.181-.22.333-.594.454-1.108.574-1.139.967-1.835 1.178-2.097.222-.252.383-.564.504-.937l.383-.534c.041-.04.102-.192.183-.454.08-.273.171-.423.292-.464.161-.272.241-.454.241-.534 0-.565-.262-.847-.775-.847-.09 0-.203.101-.324.303-.12.211-.382.413-.806.604-.423.202-.685.343-.785.444-.102.101-.314.221-.636.373a2.132 2.132 0 0 0-.847.695l-.494.232c-.16.373-.302.585-.413.625-.12.03-.483.131-1.099.293-.04.02-.13.141-.292.353a.802.802 0 0 1-.675.322 8.544 8.544 0 0 0-.716.826c-.08 0-.283.081-.615.242l-.594.141a2.922 2.922 0 0 0-.515.565c-.19.252-.534.383-1.048.383-.293 0-.443-.232-.443-.706 0-.967.343-1.733 1.017-2.308.676-.564 1.18-.877 1.493-.917.312-.03.513-.15.594-.353.071-.192.262-.353.575-.484.302-.13.655-.413 1.058-.856.403-.444.847-.747 1.32-.898l.353-.413z" fill="#ED5613"/><g transform="translate(0 6.731)"><mask id="b" fill="#fff"><use xlink:href="#a"/></mask><path fill="#ED5613" mask="url(#b)" d="M.328 13.646l1.496-1.474.645-.252 3.363-1.636 1.146-.416.644-.48.928-.35 1.343-.6.284-.099.187-.415 1.19-.098 1.059-.862 1.562-.58.796-.612 1.027-.218 1.89-.83 1.538-.413.864-.329 1.212-.099.677-.119.568-.033 1.31.317.96 1.026.744 1.792-.197.796-.285.83-.96 1.288-.383 1.05-.677 1.025-.512.995-1.148 1.31-.994 1.986-.447.35-.284.765-1.409 2.271-.262.546-.48.611-.48 1.727-.383.665.962-.633.066-.611.61-.317.514-.797.567-.514 1.41-1.256.71-.381.982-1.595.84-.514.863-.797 1.377-1.572.381-.644 1.561-1.18.395-.579.382-.033.381-.184.131-.197.316-.862 1.247-.863.764-.764.229-.1.098-.033h.034l.282.23.284-.261.033-.733.262-.61.35-.22.994-.36 1.278-1.31 1.059-.252.381-.644.448-.317.602-.48.644-.032.644-.449.665-.196.71-.218h.032l1.433.317.425.163.698.6.611.71.154.928.328.252.087.197-.317.579-.164 1.495-.568 1.54-.381 1.54-1.126 1.66-.163.545-.285.514.034.863h.317l.48-.295.261-1.048.928-.58 1.148-1.506.765-.546.61-.35.165-.6.666-.612.83-.863 1.026-.643.862-1.245 1.475-.732.578-.864 1.245-1.026 1.245-.927.546-.132.961-.699 1.148-.414 1.026-.547.61-.032.766-.23.447-.032.862.261 1.343 1.377.58 1.66v.097l-.066.864v1.506l-.732 1.377-.098.927-.546.797-.414.733-.35.327-.066.055-.25.808-.164.382-.415.316-.099.766-.448.414-.317.48-.382.23-.261.83-.58.546-.502 1.092-.578.567-.098.677-.416.602-.447.872-.416.384-.448.828-.349.252-.294 1.125-.733.219.252.806-.35.482-.381.535-.033.928-.83 1.54-.262 1.091-.12 1.114.283.645.83 1.856.066.416-.066.545-.218.862-.328.285-1.114.197-.928-.132-.316-.163-.71-.58-.733-.317.067-.513-.993-.284-.329-.48-.415-.48-.217-.798-.262-1.692.032-.48.382-1.89.23-1.375.71-1.41.218-.861.699-.71.928-1.825.676-.033-.35-.567.481-.776h.48l.22-.218-.099-.927.066-.165.197-.186.545-.36.186-1.048.644-.611-.066-.546.547-.732 1.692-2.752.612-.645.535-1.146.96-.61-.284-.635.547-.84.545-.797.415-1.026-1.31.228-.425.699-1.049.58-.677.708-.699.22-.742.578-.48.219-.983.96-1.605 1.344-1.06 1.026-.928.612-.6.994-.515.502-.513-.088-.546.316.263.284-.383.71-.807.514-.928 1.18-.633.382-.612.677-.35.666-1.157 1.31-.6.643-.416.22-.514.775-.446.381-.776 1.06-.252.569-.447.196-.23.48-.349.218-.098.742-.633.35-1.574 1.114-.633.066-.513.229-.033.032-.546-.229-.895-.578-.217-.633-.264-.71.23-.732-.033-1.06.514-.73.894-2.622.634-.928.23-1.06.35-.13.218-.316.48-.482 1.343-2.337.448-.545.262-1.015.928-1.377.448-1.027.381-.513.133-.96-1.06-.066-1.245 1.06-.645.229-.666.284-.742.699-1.114.677-.545.665-.995.449-2.14 1.8-.83.416-.611.535-.731.546-.896 1.093-.514.163-.643.284-.317.896-.83.633-.71 1.027-1.18 1.026-.48.666-1.026.578-.186.863-.962.776-.163.666-.218.35-.547.064-.677.328-.032.895-.154.383-.36.448-.502.48-.48.698-.448.1-.327.895-1.343 1.375-3.037 4.161-.284.283-.393.23-.764.318-.732.316h-.196l-.546-.066-.698-.218-.23-.317-.535-.394-.099-.894-.327-.285-.054-.316.054-.295 1.409-3.417.13-.93.678-.546.731-.578-.033-.765.23-.413.186-.515.732-.25-.187-.83.896-.776-.066-.797.098-.35.165-.261.6-.7.514-1.409.643-1.123.416-.7.6-.382.23-.797.382-.994.644-.48.284-.676.48-1.018.132-.098.381-.294.732-1.463.197-.71.928-1.212.797-2.118.578-1.082.034-1.125-1.06.295-.895.12-2.107 1.19-.896.186-1.572.678-.961.284-.732.381-.611.066-.58.742-1.409.983-1.878 1.223-1.987 1.027-.447.447-.58.318-.064.796-.732.797-.929.678-.284.066h-.13l-.928-.361-.515-.088-.218-.163-.196-.316L0 14.804l.1-.71z"/></g><path d="M150.692 63.699c.1-1.401.507-2.63 1.203-3.682.844-1.267 1.948-1.901 3.31-1.901 1.34 0 2.443.645 3.31 1.932.722 1.067 1.134 2.29 1.24 3.65h-9.063zm8.814 4.535c-.475 1.014-1.014 1.772-1.61 2.28-.744.684-1.636 1.024-2.69 1.024-1.379 0-2.503-.674-3.369-2.022-.744-1.167-1.156-2.574-1.24-4.211h11.226v-.438c0-2.261-.575-4.187-1.73-5.788-1.257-1.711-2.888-2.57-4.888-2.57-2.022 0-3.647.859-4.883 2.576-1.113 1.576-1.672 3.507-1.672 5.787 0 2.24.56 4.14 1.672 5.697 1.236 1.717 2.861 2.575 4.883 2.575 1.383 0 2.607-.37 3.683-1.107 1.072-.744 1.916-1.786 2.534-3.13.122-.293.122-.567 0-.817a.938.938 0 0 0-.554-.44 1.067 1.067 0 0 0-.744-.03 1.072 1.072 0 0 0-.618.614z" fill="#ED5613"/><mask id="d" fill="#fff"><use xlink:href="#c"/></mask><text mask="url(#d)" font-family="GulimChe" font-size="29.935" fill="#2B2A29"><tspan x="168.13" y="69.938">n</tspan></text><text mask="url(#d)" font-family="GulimChe" font-size="29.935" fill="#2B2A29"><tspan x="198.322" y="70.251">m</tspan></text><text mask="url(#d)" font-family="GulimChe" font-size="29.935" fill="#2B2A29"><tspan x="357.431" y="70.325">t</tspan></text><path d="M226.22 58.656c1.538 0 2.73.693 3.578 2.075.77 1.207 1.154 2.759 1.154 4.65 0 1.85-.383 3.393-1.154 4.62-.848 1.383-2.04 2.076-3.577 2.076-1.56 0-2.76-.693-3.608-2.076-.75-1.227-1.123-2.77-1.123-4.62 0-1.891.373-3.443 1.123-4.65.849-1.382 2.049-2.075 3.608-2.075m0-1.606c-2.164 0-3.852.857-5.062 2.574-1.051 1.516-1.58 3.437-1.58 5.758 0 2.299.529 4.21 1.58 5.727 1.21 1.716 2.898 2.574 5.062 2.574s3.84-.858 5.037-2.574c1.07-1.516 1.605-3.428 1.605-5.727 0-2.321-.534-4.242-1.605-5.758-1.196-1.717-2.873-2.574-5.037-2.574" fill="#ED5613" mask="url(#d)"/><text mask="url(#d)" font-family="GulimChe" font-size="29.935" fill="#2B2A29"><tspan x="239.697" y="70.498">u</tspan></text><text mask="url(#d)" font-family="GulimChe" font-size="29.935" fill="#2B2A29"><tspan x="260.599" y="70.498">v</tspan></text><path d="M281.705 64.29c.099-1.402.497-2.63 1.18-3.683.827-1.266 1.908-1.9 3.242-1.9 1.313 0 2.394.644 3.242 1.93.708 1.068 1.112 2.29 1.216 3.653h-8.88zm8.637 4.535c-.466 1.013-.993 1.77-1.578 2.279-.73.685-1.603 1.024-2.637 1.024-1.35 0-2.451-.674-3.3-2.021-.728-1.168-1.132-2.575-1.215-4.211h10.999v-.44c0-2.26-.563-4.185-1.696-5.786-1.231-1.712-2.828-2.57-4.788-2.57-1.981 0-3.573.858-4.783 2.575-1.092 1.576-1.64 3.507-1.64 5.787 0 2.24.548 4.14 1.64 5.698 1.21 1.716 2.802 2.574 4.783 2.574 1.354 0 2.555-.37 3.609-1.107 1.05-.744 1.877-1.786 2.483-3.13.119-.293.119-.567 0-.816a.924.924 0 0 0-.543-.44 1.034 1.034 0 0 0-.73-.03 1.057 1.057 0 0 0-.604.614z" fill="#ED5613" mask="url(#d)"/><text mask="url(#d)" font-family="GulimChe" font-size="29.935" fill="#2B2A29"><tspan x="300.228" y="70.099">m</tspan></text><path d="M323.77 64.29c.1-1.401.497-2.63 1.181-3.682.828-1.267 1.91-1.901 3.246-1.901 1.314 0 2.396.645 3.245 1.932.71 1.067 1.113 2.29 1.217 3.65h-8.889zm8.646 4.535c-.466 1.013-.995 1.772-1.58 2.28-.729.684-1.604 1.024-2.639 1.024-1.352 0-2.454-.674-3.303-2.022-.73-1.167-1.134-2.574-1.217-4.211h11.01v-.438c0-2.261-.563-4.187-1.697-5.788-1.233-1.711-2.83-2.57-4.793-2.57-1.984 0-3.577.859-4.789 2.576-1.092 1.576-1.64 3.507-1.64 5.787 0 2.24.548 4.14 1.64 5.697 1.212 1.717 2.805 2.575 4.79 2.575 1.354 0 2.555-.37 3.611-1.108 1.051-.743 1.88-1.786 2.485-3.128.12-.294.12-.568 0-.818a.918.918 0 0 0-.544-.44 1.026 1.026 0 0 0-.729-.03 1.06 1.06 0 0 0-.605.614z" fill="#ED5613" mask="url(#d)"/><text mask="url(#d)" font-family="GulimChe" font-size="29.935" fill="#2B2A29"><tspan x="340.837" y="70.227">n</tspan></text><path d="M309.007 32.609c.07-.434.312-.766.726-.988.404-.232.645-.453.715-.696.383-.272.918-.766 1.614-1.482.705-.705 1.048-1.139 1.048-1.29 0-.06-.041-.09-.111-.09h-.06l-.243.141-.524-.051-.564.051-.413-.202-.383.061-.595-.121c-.313 0-.585.06-.816.191-.222.131-.656.272-1.301.434a4.594 4.594 0 0 0-1.724.806c-.514.383-.887.575-1.13.575-.14.302-.593.725-1.39 1.27-.473.161-.776.504-.916 1.038-.505.414-.767.645-.767.706l-.201.503a1.999 1.999 0 0 1-.595.343c-.232.091-.373.293-.414.615-.04.333-.171.625-.402.887-.223.273-.333.484-.333.635 0 .968.18 1.452.554 1.452.162 0 .494-.101.997-.313.495-.201.788-.343.868-.423.08-.081.242-.161.473-.242l.565-.292a.496.496 0 0 1 .262-.151.508.508 0 0 0 .292-.192c.1-.111.283-.222.535-.353a1.49 1.49 0 0 0 .594-.514c.333-.202.877-.504 1.623-.917l.625-.474c.434-.202.696-.363.796-.504.1-.141.293-.272.595-.413m10.092-.01l.463-.414c.302 0 .474-.131.535-.393.059-.262.27-.474.635-.635.363-.161.695-.473 1.007-.957.323-.484.646-.726.978-.726.11 0 1.199-.32 1.352-.12 1.03 1.355-2.241 2.577-.512 3.156l-1.112.955c-.292.152-.484.323-.575.495-.09.181-.322.393-.695.655l-.292.413c-.434.141-.727.363-.867.676-.152.322-.353.493-.625.533-.262.041-.555.232-.866.595a5.494 5.494 0 0 1-.706.262l-.061.293c-.202.201-.504.352-.928.473-.423.121-.746.232-.947.343-.212.111-.353.162-.434.162a2.33 2.33 0 0 1-1.028-.222 3.046 3.046 0 0 0-.977-.283.708.708 0 0 1-.202-.383c-.02-.141-.121-.322-.293-.544-.18-.232-.271-.534-.271-.928l.12-.563c0-.082-.05-.182-.15-.293-.091-.121-.142-.222-.142-.302a.24.24 0 0 1 .06-.172.3.3 0 0 0 .05-.181c0-.091-.02-.202-.05-.323a.95.95 0 0 1-.06-.292l.172-1.452c0-.11-.04-.171-.111-.171-.081 0-.222.091-.434.292a.977.977 0 0 1-.726.292c-.151.122-.282.364-.382.747a2.515 2.515 0 0 1-.595.523l-.111.182c-.041.141-.192.252-.444.343-.262.08-.433.202-.534.332l-.292.303-.564-.06c-.04.04-.152.211-.323.514a2.47 2.47 0 0 1-.685.756l-2.24 1.824c-.241.161-.584.363-1.037.595l-.181.181c-1.573 1.039-2.681 1.562-3.336 1.562-.534 0-1.15-.15-1.856-.443-.715-.292-1.098-.646-1.16-1.059l-.291-1.219c-.182-.272-.262-.655-.262-1.149 0-.232.02-.393.06-.474v-.171l-.06-.978c0-.242.18-.353.554-.353l-.06-.796c0-.081.18-.393.524-.937.343-.545.575-.847.695-.928l.293-.383c-.02-.242.12-.494.413-.756a3.69 3.69 0 0 0 .705-.816c.182-.273.515-.575 1.009-.908l.887-.887a8.917 8.917 0 0 1 2.248-1.653c.12-.04.362-.242.726-.595a3.515 3.515 0 0 1 1.239-.786 7.506 7.506 0 0 0 1.36-.635c.445-.252.797-.383 1.049-.383h.242c.08 0 .595-.242 1.563-.736h.18c.08 0 .263.081.566.232h.05l.474-.232c.08-.04.18-.06.302-.06 1.22 0 1.885.846 2.006 2.54.04.353.14.534.303.534.19 0 .473-.363.836-1.079.364-.715 1.139-1.078 2.319-1.078.847 0 1.269.544 1.269 1.623 0 1.28-.564 2.49-1.713 3.629a2.169 2.169 0 0 0-.171.534l-.413 1.209v.061c0 .121-.091.282-.252.484-.171.212-.252.393-.252.554l.06.736-.121.826c0 .374.07.616.212.737.625-.162 1.078-.414 1.36-.787.283-.363.485-.564.606-.604l.292-.112c.18-.302.383-.544.625-.745M308.936 18.225l1.333-.917c.151-.172.464-.353.917-.535.746-1.138 1.674-1.945 2.772-2.42.495-.805 1.03-1.21 1.593-1.21.635 0 .512.163.764.476l.534.533c.04.04.121.222.262.545.141.322.312.625.514.917.211.282.343.575.403.887.06.303.181.595.353.867.182.282.332.645.474 1.099l.292.584c.352.575.534.938.534 1.099 0 .454-.16.676-.474.676-.08 0-.242-.02-.503-.061h-.112c-.079 0 .245-.506-.148-.385-.807-.242-1.27-.444-1.38-.625 0-.041-.092-.141-.253-.323a2.528 2.528 0 0 1-.373-.474 1.272 1.272 0 0 0-.353-.393c-.16-.131-.363-.433-.605-.917-.252-.484-1.02-.16-1.17-.16-.082 0 .435-.505.414-.384-.019.11-.637.778-.718.859-.272.04-.564.18-.867.423-.302.252-.786.575-1.43.988l-1.453 1.069-.292.322a.575.575 0 0 1-.382.12c-.495 0-.452-.13-.997-.382-.392.212-.725.323-.977.323-.273 0-.413-.192-.413-.565 0-.393.312-.705.947-.937.101-.061.282-.252.555-.585.282-.323-.023-.494.24-.514M130.405 28.913l.556-.392.68-.65 1.083-.694.625-.572.706-.382.352-.474.565-.232.948-.564.413-.182.565-.06 1.209.332.938.917.332 1.261-.181.866-.504 1.18-.091 1.058-.464.504.03 1.502-.564 1.008-.091.676-.645.302v.352l.495.474.029.111-.111.565-.15.705h.18l.233-.262.625-.232.11-.504.504-.09.152-.535.524-.504.413-.382.887-1.059.504-.383.323-.473.212-.595.947-.676.202-.413.382-.414.414-.564.685-.504.907-.968 1.16-1.149.322-.473 1.36-1.069.525-.474.625-.322 1.472-.293.302.031.555.232 1.068.917.232 1.008-.292 1.15-.444.674-.262.152-.716-.152-.615.383-.534.152-.564-.09-.494.321-.686.121-.443.625-.675.171-.474.242-.202.202-.413.625-1.038.585-.504.715-.585.413-.504.555-.504.121-.262.323-.121.503-.353.565-.091.051-.625.151-.201.715-.676.263-.332.766-.585.473-.413.766-.827.646-.826 1.421-.746.504-.796.797-.444.09-.766-.242-2.006-2.268-.262-.474-.363-1.532.18-1.008.647-1.562.746-3.367.706-1.774-.203-.534-.856.564-1.008.061-.591.937-.8.474-.444.685-.504.262-.494.625h-.12l-.232-.09-.333-.565-.555-.444-.03-.12.327-.383.446-.444z" fill="#ED5613" mask="url(#d)"/><path d="M330.481 14.683h.061c.473 0 .887-.091 1.26-.282.363-.182.675-.323.916-.394.253-.08.405-.14.464-.181a.3.3 0 0 1 .152-.06l.473.06c.162 0 .373-.282.636-.836.262-.565 1.133-3.247 1.464-3.498.331-.25.665-.736 1.008-1.452.07-.09.161-.252.261-.453.102-.212.172-.313.233-.313.292 0 .534-.181.705-.554.595-.696 1.07-1.038 1.441-1.038.494 0 .837.473 1.038 1.42l.293 1.12c0 .02-.05.16-.15.423-.092.272.041.598-.132.807-.678.816-.698.169-.698.836 0 .084-.984 2.704-.67 2.543l2.061-.336c.192.122.363.182.504.182.03 0 .313-.101.836-.302.525-.192.847-.303.99-.323.14-.02.372-.101.704-.232h.363l.231.09c.081 0 .243-.09.485-.251.252-.172.716-.272 1.411-.312l.413-.182h.111c.656 0 .978.292.978.857 0 .12-.09.332-.282.625a4.146 4.146 0 0 0-.455.997l-1.36 1.714c-.454.595-.907.887-1.36.887-.08 0-.323-.262-.737-.796 0-.04-.04-.06-.12-.06-.192 0-.404.04-.616.12-.222.08-.392.12-.533.12-.062 0-.585.142-1.563.445l-.715.11c-.072 0-.263.04-.555.122l-1.512.292c-.514.262-.918.15-1.21.856 0 .04-.468.36-.659.49l-1.238 1.88c-.434.11-.956 1.29-1.087 1.683.06.314.227.057-.21.544a2.465 2.465 0 0 1-.505.484l-.524.796c-.222.283-.434.585-.656.908a3.613 3.613 0 0 0-.473 1.028c-.1.373-.182.584-.232.635-.06.06-.09.17-.09.333l-.09.232c-.233.23-.354.504-.354.796l.121.473c-.283.948-.424 1.452-.424 1.503 0 .04.021.15.061.332l-.07.242c-.099.34.11.433-.294.813-.314.295-.424.612-.246 1.2.12.393-.28 1.305.302 1.968.402.45-.163 1.552.35 2.19.231.29 1.096.363 1.096.802 0 .11 1.131.298 1.075.515-.056.217 1.11-.033 1.094.225-.016.267.691.702.412.948-.286.249-.859 1.537-1.05 1.537-1.049 0-4.514-.205-5.025-1.724-.203-.603-.414-1.683-.546-2.781-.216-1.793-.375-3.336-.375-3.596l.061-1.02.013-.338.016-.274.026-.503.5-.83v-.916c0-.041.141-.192.413-.474 0-.04-.04-.05-.11-.05-.122 0-.283.11-.475.352a4.12 4.12 0 0 1-.745.676l-.233.413a.672.672 0 0 0-.24-.121c-.092.04-.425.504-.969 1.39-.423.062-.746.293-.978.707-.24.413-.565.625-.978.625l-.12.06c-.08.565-.353.857-.827.857l-.12.06c-.293.666-.596.988-.918.968-.19.595-.676.998-1.44 1.21a1.17 1.17 0 0 1-.526.534 2.627 2.627 0 0 0-.483.322c-.102.1-.193.152-.273.152-.252 0-.908-.16-.908-.715 0-.161-.604-.408-.483-.588.13-.192.566-.21.566-.291 0-.04.734-.301.532-.503 0-.615.162-.998.475-1.15a1.55 1.55 0 0 0 .705-.684c.102-.232.303-.404.595-.494.292-.101.443-.232.443-.394 0-.131.263-.413.767-.826.513-.413.886-.766 1.13-1.078.23-.303.432-.454.593-.454l.111-.121c.041-.484.232-.736.564-.736l.303-.171.051-.242.18-.122h.233l.151-.11c.04-.494.273-.877.695-1.16.424-.271 1.2-1.048 2.328-2.317 1.12-1.271 1.754-2.078 1.885-2.43.142-.353.394-.837.757-1.431.362-.605 1.432-1.638 1.472-2.173-.04-.081-.325-.081-.405-.161-.485.414-.855-.093-1.577.295-1.169.1-1.387.258-1.982.632l-.152.045-.249.03c-.413.052.035.173-1.712.016a3.762 3.762 0 0 1-2.42-1.165c-.256-.281.691-.862 1.287-1.21.766-.448-.208.28 3.051-.51.752.136 1.257-.513 1.417-.381.05.04.278-.18.284-.16.006.022.103-.027.532-.268" fill="#ED5613" mask="url(#d)"/></g></svg>
