<svg width="372" height="75" xmlns="http://www.w3.org/2000/svg" xmlns:xlink="http://www.w3.org/1999/xlink"><defs><path id="a" d="M0 .553h62.004v35.064H0z"/><path id="c" d="M0 .039h41.136v41.137H0z"/><path id="e" d="M.948.79h37.556v18.749H.948z"/></defs><g fill="none" fill-rule="evenodd"><path d="M170.527 58.176a.935.935 0 0 1 .644-.234c.233 0 .438.078.613.234.195.175.293.409.293.7v1.112a7.487 7.487 0 0 1 1.666-1.403 6.078 6.078 0 0 1 3.098-.847c1.034 0 1.92.32 2.66.964.937.799 1.404 1.958 1.404 3.479v11.372a.75.75 0 0 1-.292.613 1.13 1.13 0 0 1-.614.235c-.254 0-.468-.07-.643-.205a.783.783 0 0 1-.264-.614v-11.11c0-.915-.204-1.646-.613-2.192-.43-.623-1.063-.935-1.9-.935a4.855 4.855 0 0 0-3.011 1.023c-.488.39-.985.946-1.491 1.666v11.43a.861.861 0 0 1-.293.673c-.175.156-.38.244-.613.264a.936.936 0 0 1-.644-.235c-.175-.156-.263-.38-.263-.672V58.848c0-.292.088-.516.263-.672M199.93 58.487a.79.79 0 0 1 .606-.264c.244 0 .445.089.607.264.202.175.303.42.303.73v.322c.243-.39.536-.71.88-.964.505-.352 1.042-.526 1.608-.526.565 0 1.1.166 1.607.498.445.31.748.69.91 1.139.404-.566.838-.974 1.304-1.227.525-.274 1.153-.41 1.88-.41.95 0 1.679.293 2.185.877.505.605.757 1.53.757 2.777V73.69c0 .313-.101.566-.303.76a.792.792 0 0 1-.607.264.71.71 0 0 1-.607-.235c-.181-.175-.273-.42-.273-.73v-11.9c0-.758-.14-1.315-.424-1.666-.262-.35-.657-.526-1.183-.526-.424 0-.84.206-1.244.614-.383.39-.688.877-.909 1.462v12.192c0 .232-.101.426-.303.583a.912.912 0 0 1-.607.206.907.907 0 0 1-.606-.206c-.184-.157-.273-.37-.273-.642V61.704a2.24 2.24 0 0 0-.487-1.434c-.302-.409-.656-.614-1.06-.614-.465 0-.91.186-1.334.556-.425.37-.73.847-.91 1.432v12.133a.849.849 0 0 1-.304.671.957.957 0 0 1-.607.265.911.911 0 0 1-.607-.206c-.181-.157-.272-.37-.272-.642V59.277c0-.331.09-.596.272-.79M363.394 53.884c.175-.136.39-.204.643-.204.234 0 .438.068.614.204.194.156.292.38.292.673v4.063h2.397c.527 0 .79.263.79.789-.02.546-.283.819-.79.819h-2.397v11.605c0 .352.097.644.293.877.233.293.564.439.994.439h1.052c.272 0 .497.078.673.234a.762.762 0 0 1 .233.556.756.756 0 0 1-.233.554.913.913 0 0 1-.673.264h-1.374c-.897 0-1.598-.292-2.105-.877-.448-.526-.673-1.17-.673-1.93V60.228h-1.607c-.448 0-.673-.273-.673-.819 0-.526.225-.789.673-.789h1.607v-4.063c0-.293.088-.517.264-.673M253.042 74.463a.952.952 0 0 1-.637.233.995.995 0 0 1-.667-.233.897.897 0 0 1-.273-.673v-1.286c-.708.78-1.345 1.345-1.91 1.696-.83.487-1.8.731-2.912.731-1.598 0-2.872-.488-3.822-1.462-.85-.858-1.273-1.9-1.273-3.128V59.174c0-.33.09-.585.272-.76a.927.927 0 0 1 .667-.263c.243 0 .455.087.638.262.2.176.303.43.303.761v11.167c0 .8.273 1.481.819 2.047.586.623 1.385.934 2.396.934.97 0 1.85-.282 2.638-.847.627-.428 1.355-1.169 2.184-2.222V59.174c0-.33.092-.585.273-.76a.927.927 0 0 1 .667-.263.89.89 0 0 1 .637.262c.202.176.304.43.304.761V73.79a.852.852 0 0 1-.304.673M261.805 59.38a.664.664 0 0 1 .09-.644c.123-.175.314-.3.578-.379.241-.079.474-.079.697 0a.807.807 0 0 1 .515.496l4.64 13.272 4.642-13.272a.716.716 0 0 1 .485-.496c.221-.079.464-.079.728 0 .241.078.435.204.575.38a.73.73 0 0 1 .122.642l-5.399 14.617c-.223.644-.617.965-1.183.965-.587 0-.97-.32-1.151-.965l-5.34-14.617zM301.836 58.335a.79.79 0 0 1 .606-.264c.244 0 .445.088.607.264.202.175.304.42.304.73v.322c.242-.39.535-.71.879-.964.505-.352 1.042-.526 1.608-.526.565 0 1.1.166 1.607.497.445.311.748.691.91 1.14.404-.566.838-.975 1.304-1.228.526-.273 1.153-.409 1.88-.409.95 0 1.679.292 2.185.876.505.605.757 1.531.757 2.778v11.985c0 .313-.101.566-.302.76a.792.792 0 0 1-.608.264.71.71 0 0 1-.606-.235c-.182-.175-.273-.419-.273-.73V61.696c0-.759-.141-1.315-.424-1.666-.263-.35-.658-.526-1.183-.526-.425 0-.84.205-1.244.614-.384.39-.688.877-.91 1.462v12.191c0 .233-.101.427-.303.584a.912.912 0 0 1-.607.205.907.907 0 0 1-.606-.205c-.183-.157-.273-.37-.273-.643v-12.16a2.24 2.24 0 0 0-.486-1.434c-.302-.409-.657-.614-1.061-.614-.465 0-.91.185-1.334.556-.425.37-.73.847-.91 1.432v12.132a.849.849 0 0 1-.304.672.957.957 0 0 1-.607.264.911.911 0 0 1-.606-.205c-.182-.157-.272-.37-.272-.643V59.124c0-.33.09-.595.272-.789M343.324 58.465a.99.99 0 0 1 .667-.234.95.95 0 0 1 .637.234.881.881 0 0 1 .303.701v1.111a7.723 7.723 0 0 1 1.729-1.403 6.489 6.489 0 0 1 3.215-.847c1.071 0 1.991.321 2.761.964.969.799 1.455 1.958 1.455 3.479v11.372a.74.74 0 0 1-.303.613 1.205 1.205 0 0 1-.638.235c-.263 0-.484-.069-.667-.205a.774.774 0 0 1-.272-.614V62.762c0-.916-.213-1.647-.638-2.193-.444-.623-1.102-.935-1.971-.935a5.163 5.163 0 0 0-3.124 1.023c-.506.39-1.021.946-1.547 1.666v11.431a.848.848 0 0 1-.303.672 1.094 1.094 0 0 1-.637.264.99.99 0 0 1-.667-.235c-.183-.156-.273-.38-.273-.672V59.137c0-.292.09-.516.273-.672" fill="#2B2A29"/><path d="M150.692 63.7c.1-1.403.507-2.63 1.203-3.684.844-1.266 1.948-1.9 3.31-1.9 1.34 0 2.443.644 3.31 1.931.722 1.067 1.134 2.29 1.24 3.652h-9.063zm11.131 1.166c0-2.26-.575-4.186-1.73-5.787-1.257-1.712-2.888-2.569-4.888-2.569-2.022 0-3.648.857-4.883 2.574-1.113 1.576-1.672 3.508-1.672 5.787 0 2.24.56 4.141 1.672 5.698 1.235 1.716 2.861 2.574 4.883 2.574 1.383 0 2.607-.369 3.683-1.107 1.072-.743 1.916-1.786 2.534-3.128.122-.295.122-.569 0-.818a.94.94 0 0 0-.554-.44 1.072 1.072 0 0 0-.744-.03 1.071 1.071 0 0 0-.618.614c-.475 1.013-1.014 1.772-1.61 2.28-.744.684-1.636 1.023-2.69 1.023-1.379 0-2.503-.674-3.368-2.02-.745-1.169-1.157-2.575-1.24-4.212h11.225v-.439zM229.798 70.001c-.85 1.382-2.04 2.075-3.577 2.075-1.56 0-2.76-.693-3.61-2.075-.75-1.228-1.122-2.769-1.122-4.62 0-1.89.373-3.443 1.123-4.65.85-1.382 2.05-2.076 3.609-2.076 1.537 0 2.727.694 3.577 2.075.77 1.208 1.154 2.76 1.154 4.651 0 1.851-.383 3.392-1.154 4.62m1.459-10.378c-1.195-1.716-2.872-2.574-5.036-2.574-2.164 0-3.852.858-5.063 2.574-1.05 1.517-1.58 3.438-1.58 5.758 0 2.3.53 4.211 1.58 5.727 1.21 1.717 2.899 2.575 5.063 2.575 2.164 0 3.84-.858 5.036-2.575 1.072-1.516 1.605-3.427 1.605-5.727 0-2.32-.533-4.24-1.605-5.758M281.706 64.29c.098-1.402.496-2.63 1.179-3.683.827-1.267 1.908-1.9 3.242-1.9 1.313 0 2.394.643 3.242 1.93.708 1.068 1.112 2.291 1.216 3.652h-8.88zm10.905 1.167c0-2.26-.563-4.187-1.696-5.788-1.23-1.71-2.828-2.569-4.788-2.569-1.981 0-3.573.858-4.783 2.574-1.092 1.577-1.64 3.508-1.64 5.788 0 2.24.548 4.14 1.64 5.697 1.21 1.717 2.802 2.574 4.783 2.574 1.354 0 2.555-.368 3.609-1.107 1.05-.743 1.878-1.786 2.483-3.128.119-.294.119-.569 0-.818a.919.919 0 0 0-.543-.439c-.243-.1-.487-.11-.73-.03a1.055 1.055 0 0 0-.604.613c-.466 1.013-.993 1.772-1.578 2.28-.73.684-1.603 1.023-2.637 1.023-1.35 0-2.451-.673-3.3-2.02-.728-1.168-1.132-2.575-1.215-4.212h10.999v-.438zM323.77 64.29c.1-1.402.497-2.63 1.181-3.683.828-1.266 1.91-1.9 3.246-1.9 1.314 0 2.396.644 3.245 1.931.71 1.067 1.113 2.29 1.217 3.652h-8.889zm10.917 1.167c0-2.26-.563-4.186-1.697-5.787-1.233-1.712-2.832-2.569-4.793-2.569-1.984 0-3.577.857-4.789 2.574-1.092 1.577-1.64 3.507-1.64 5.787 0 2.24.548 4.141 1.64 5.698 1.212 1.716 2.805 2.574 4.79 2.574 1.354 0 2.555-.369 3.611-1.107 1.051-.743 1.88-1.786 2.485-3.129.12-.294.12-.568 0-.818a.922.922 0 0 0-.544-.439 1.026 1.026 0 0 0-.729-.03 1.058 1.058 0 0 0-.605.614c-.466 1.013-.995 1.771-1.58 2.28-.729.684-1.604 1.023-2.639 1.023-1.352 0-2.454-.674-3.303-2.02-.73-1.169-1.134-2.575-1.217-4.212h11.01v-.439zM123.861 18.134l1.15.434.291-.02.413-.212.656-.504.091-.09.171-1.089.121-.797.03-.18-.18-.556-.495-.594-.716-.474-.554-.202h-.12l-.626.232-.706.302-.232.323-.242 1.18v.121l.293 1.531zM155.554 29.73c.383-.785.756-1.27 1.12-1.46a6.736 6.736 0 0 0 1.118-.736c.382-.303.615-.474.696-.514l.352-.182.505-.121c.352-.232.573-.353.644-.353h.685c.314-.192.546-.292.707-.292.373 0 .565.12.565.353 0 .12-.172.242-.516.352-.353.12-.685.444-1.028.978l-.291.122c-.153.19-.393.393-.726.604-.323.202-.504.343-.544.423l-.233.243c-.614.393-1.078.725-1.401.997a4.922 4.922 0 0 1-1.048.686l-1.008.443c-.12 0-.181-.061-.181-.181 0-.121.19-.575.584-1.361zm19.517-4.555a9.38 9.38 0 0 1 .928-2.047c.394-.634.645-1.108.745-1.431.091-.312.202-.524.304-.635.11-.101.16-.202.16-.282l-.08-.413c0-.152.12-.313.384-.464l.412.05c.121-.07.252-.342.393-.806.151-.464.313-.796.494-1.008.171-.201.292-.383.353-.544a1 1 0 0 1 .263-.404c.063-.052.536-.845.796-1.16.1-.1.644-.825 1.622-2.186.304-.574.615-.978.947-1.21.333-.241.525-.463.565-.685l.202-.353c.393-.292.636-.655.726-1.078.09-.424.434-.706 1.019-.837.16-.655.321-1.008.493-1.07.16-.06.343-.15.544-.291.151 0 .232.222.232.676l-.232.977c0 .313-.09.554-.252.726-.172.16-.251.312-.251.423l-.475 1.099c-.595.998-.936 1.623-1.028 1.855l-.06.302c-.04.07-.06.242-.06.494l-.475.06c-.08.354-.222.606-.434.746a1.382 1.382 0 0 0-.483.575 3.527 3.527 0 0 1-.575.796c-.261.283-.403.444-.403.484v.474l-.11.18a1.673 1.673 0 0 0-.475.798l-.242.06c-.13 0-.341.282-.613.857-.707.333-1.15.756-1.332 1.27l-.232.524c-.534.534-.796.857-.796.978 0 .232-.03.424-.09.564a.984.984 0 0 0-.09.414h-.244c-.17 0-.472.222-.907.665-.433.444-.695.816-.775 1.129l-.615 1.235c-.232.524-1.195.635-1.447.635-.08 0-.14-.02-.18-.061.22-.201 1.153-1.365 1.374-2.081zm13.696.642c.23-.726 1.175-2.044 1.569-2.69.392-.633.645-1.107.744-1.43.093-.312.203-.524.303-.635.111-.101.161-.202.161-.282-.121-.63-.052-.376.716-.826.121-.071.252-.343.395-.807.15-.464.311-.796.494-1.008.17-.201.291-.383.351-.544.061-.161.143-.293.262-.404.121-.1.183-.221.183-.332 0-.041-.04-.222-.121-.534l.442.06.294-.353c.1-.101.643-.826 1.623-2.187.302-.574.614-.978.947-1.21.332-.241.525-.463.565-.685l.2-.353c.393-.292.636-.655.725-1.078.091-.424.434-1.486 1.02-1.617.16-.655.322-1.008.494-1.068.16-.061.343-.152.544-.292.15 0 .23.22.23.674l-.23.978c0 .313-.091.555-.252.726-.171.162-.252 1.092-.252 1.203l-.474 1.099c-.594.998-.938 1.623-1.028 1.855-.108.54-.605 1.32-1.029 1.602a1.39 1.39 0 0 0-.483.575 3.496 3.496 0 0 1-.576.796c-.206.223-.917 1.672-.987 1.936l-.242.06c-.13 0-.343.282-.613.857-.707.333-1.15.756-1.332 1.27l-.231.524c-.536.534-.798.857-.798.978 0 .232-.03.424-.09.564-.294.638-1.28 1.106-1.882 1.72-.433.445-.695.818-.775 1.13l-.615.363c-.233.524-.486.797-.737.797-.08 0-.14-.021-.181-.061.221-.202.444-.655.666-1.371zm12.18 3.639c.381-.787 1.03-.995 1.392-1.186a6.7 6.7 0 0 0 1.12-.736c.382-.303.615-.474.696-.514l.351-.182.506-.121c.352-.232.573-.353.644-.353h.685c.314-.192.544-.292.707-.292.373 0 .565.12.565.353 0 .12-.173.242-.516.352-.353.12-.686.444-1.028.978l-.291.122c-.153.19-.393.393-.726.604-.323.202-.504.343-.546.423l-.23.243c-.615.393-1.079.725-1.403.997-.331.282-.95.889-1.322 1.07l-1.65.96c-.121 0-.181-.06-.181-.18 0-.121.833-1.752 1.226-2.538zm13.287 1.606c0-.292-.13-.444-.383-.444a.44.44 0 0 0-.322.132c-.101.09-.243.17-.434.24-.181.062-.303.303-.343.717l-1.33.857c-.042.014.023-.154-.907.15-.282.04-.474.162-.584.353-.102.202-.374.343-.798.434-.423.09-.756.383-.987.897l-.12.06h-.413c-.132 0-.284.08-.445.242l-.232.202c-.16.08-.281.232-.353.474l-.302.18c-.212 0-.513.112-.887.354-.373.232-.625.504-.767.797l-.292-.122c-.242.08-.412.122-.534.122-.372 0-.725.1-1.047.292a1.948 1.948 0 0 1-1.05.292l-1.42.21c-1.038 0-1.563-.281-1.563-.855 0-.04.04-.242.12-.605.071-.363.132-.665.172-.897.313-.202.625-.303.917-.303l.585-.614.304.06.382-.363c.313-.03.474-.171.474-.413 0-.212.07-.423.232-.615.231.08.373.12.413.12.252 0 .746-.362 1.472-1.097.322 0 .523-.122.625-.384.1-.252.311-.493.644-.705l.534.06c.374-.766.716-1.16 1.038-1.16.071 0 .132.03.172.082.04.05.101.07.183.07.11 0 .27-.09.452-.282a2.55 2.55 0 0 1 .546-.413c.18-.091.431-.303.764-.635.383-.081.877-.434 1.512-1.06.625-.634.939-1.25.939-1.864 0-.332-.183-.695-.544-1.088-.364-.393-.757-.595-1.19-.595-.364 0-.656-.061-.907-.172-.243-.12-.404-.181-.484-.181l-1.24.06c-.374 0-.767.07-1.17.203-.403.14-.726.21-.987.21l-.475-.12a.14.14 0 0 0-.11.06c-.121.162-.352.333-.685.535-1.321.474-2.126.857-2.42 1.149l-.352.504c-.615.332-.938.725-.978 1.179-.041.454-.292.696-.766.736l-.614.504c-.285.555-.454.897-.536 1.028l-.674 1.25c-.121.333-.222.525-.303.585l-.087.325c-.412.447-.86.938-1.1 1.369-.32.173-1.8.634-1.827.634h-.352a1.11 1.11 0 0 1-.293.242c0 .686-.15 1.028-.444 1.028h-.292c-.08 0-.19.07-.322.212a1.024 1.024 0 0 1-.464.262c-.332.083-1.639 1.24-2.339 1.623-.453.292-.706.444-.746.444l-.704-.121c-.373 0-.606-.323-.706-.968l-.151-.796.06-.656c0-.121-.08-.322-.231-.614.311-1.15.474-1.765.474-1.865l-.123-.797c.213-.332.353-.645.415-.917l.06-.46c2.195-.23 1.895-2.098 3.095-1.745l1.037-.396c.121-.272.213-.453.293-.524.08-.453.282-.725.595-.796.13-.383.362-.635.674-.776l.535-1.09c.141-.12.261-.301.382-.543.121-.252.284-.423.505-.514.212-.101.353-.212.413-.333.062-.111.172-.555.353-1.33.273.04.677-.414 1.21-1.381l.766-1.422c.142-.453.313-.786.504-.998.203-.221.354-.423.475-.625l.291-.473c.413-.413.655-.766.716-1.06.05-.291.222-.573.484-.846.262-.261.393-.533.393-.806l-.08-.443h.321c.161 0 .303-.252.444-.756.131-.504.333-.897.576-1.18.242-.282.392-.484.422-.604 0-.827.181-1.271.536-1.331.04-.081.08-.444.12-1.09.14-.12.242-.18.322-.18.12 0 .313-.545.595-1.623l.11-.232c.303-.302.444-.584.444-.857 0-.695-.292-1.31-.887-1.844-.584-.544-1.25-.817-1.976-.817-.311 0-.584.04-.827.12l-.2.062c-.04 0-.223.07-.535.23l-.352.234c-.495.26-.737.735-.737 1.42l-.412.122a4.424 4.424 0 0 1-.918.534c-.514.746-.756 1.229-.716 1.44l-.614.505c-.202.313-.445.534-.737.646-.221.393-.383.665-.472.796l-.243.413-.797.917c-.191.514-.341.867-.444 1.049-.1.19-.14.222-.14.11l-.06.585a2.577 2.577 0 0 0-.303.625l-.554.06c-.314.424-.535.837-.656 1.21-.292.152-.635.595-1.027 1.32-.243.1-.454.323-.655.656l-.617 1.27-1.038 1.713c.082.273.121.434.121.474 0 .07-.04.15-.12.232l-.292.06c-.203.353-.353.625-.454.817-.112.18-.252.403-.413.655-.172.262-.263.414-.282.474l-.978 2.369-.595 1.794c-.171.534-.392.948-.645 1.24-.209.25-.313.56-.35.914a1.273 1.273 0 0 0-.207.154 2.666 2.666 0 0 1-.454.293c-.171.08-.272.242-.302.483-.03.253-.213.525-.544.847h-.173c-.332 0-.816.564-1.45 1.714-.131.07-.383.13-.737.17-.08.082-.212.314-.393.697-.191.383-.363.574-.523.574h-.353a1.109 1.109 0 0 1-.292.242c0 .686-.153 1.028-.445 1.028h-.291c-.082 0-.192.07-.323.212a1.019 1.019 0 0 1-.464.262c-.161.04-.303.162-.423.353v.383c0 .312-.101.474-.292.474-.121 0-.282-.041-.474-.121 0-.041-.02-.061-.061-.061l-1.088.595c-.454.292-.707.444-.746.444l-.707-.121c-.373 0-.603-.323-.704-.968l-.153-.796.061-.656c0-.121-.08-.322-.232-.614.314-1.15.475-1.765.475-1.865l-.121-.797c.212-.332.353-.645.412-.917 2.65-1.156.58.27 3.155-1.562l1.038-1.04c.123-.271.212-.452.293-.523.08-.453.282-.725.596-.796.13-.383.363-.635.674-.776l.536-1.09c.14-.12.26-.301.381-.543.123-.252.284-.423.505-.514.212-.101.352-.212.412-.333.061-.111.172-.555.353-1.33.272.04.676-.414 1.21-1.381l.767-1.422c.14-.453.313-.786.503-.998.202-.221.353-.423.475-.625l.292-.473c.413-.413.655-.766.715-1.06.05-.291.222-.573.484-.846.262-.261.393-.533.393-.806l-.08-.443h.322c.161 0 .303-.252.444-.756.13-.504.333-.897.575-1.18.242-.282.392-.484.422-.604 0-.827.183-1.271.535-1.331.04-.081.08-.444.12-1.09.142-.12.244-.18.323-.18.121 0 .313-.545.595-1.623l.11-.232c.304-.302.445-.584.445-.857 0-.695-.293-1.31-.887-1.844-.585-.544-1.25-.817-1.976-.817-.313 0-.584.04-.826.12l-.202.062c-.04 0-.221.07-.535.23l-.352.234c-.494.26-.737.735-.737 1.42l-.412.122a4.398 4.398 0 0 1-.917.534c-.516.746-.756 1.229-.716 1.44l-.616.505c-.202.313-.442.534-.736.646-.22.393-.383.665-.472.796l-.244.413-.794.917c-.192.514-.343.867-.444 1.049-.102.19-.142.222-.142.11l-.06.585a2.544 2.544 0 0 0-.303.625l-.554.06c-.313.424-.535.837-.656 1.21-.291.152-.635.595-1.028 1.32-.242.1-.454.323-.655.656l-.614 1.27-1.038 1.713c.08.273.12.434.12.474 0 .07-.04.15-.12.232l-.293.06c-.202.353-.354.625-.454.817a38.39 38.39 0 0 1-.413.655c-.171.262-.262.414-.282.474l-.979 2.369-.594 1.794c-.172.534-.393.948-.644 1.24-.17.204-.263.452-.32.723a1.495 1.495 0 0 1-.309.154c-.18.06-.302.302-.343.715l-1.33.857c-.228.074-1.869 1.298-2.379 1.916a1.075 1.075 0 0 1-.685.393c-.283.04-.474.16-.586.352-.1.202-.371.343-.796.434-.423.09-.756.383-.988.897l-.12.06h-.412c-.132 0-.284.08-.445.242l-.232.202c-.16.08-.281.232-.352.474l-.303.18c-.212 0-.513.112-.888.354-.371.232-.624.504-.764.797l-.293-.122c-.242.08-.413.122-.535.122-.372 0-.725.1-1.047.292a1.948 1.948 0 0 1-1.05.292l-1.42.21c-1.038 0-1.563-.281-1.563-.855 0-.04.04-.242.121-.605.07-.363.131-.665.171-.897.313-.202.625-.303.917-.303l.585-.614.302.06.383-.363c.02-.002 2.26-1.67 2.592-2.005.322 0 .524-.122.625-.384.1-.252.311-.493.644-.705l.535.06c.373-.766.715-1.16 1.038-1.16.07 0 .131.03.171.082.04.05.101.07.183.07.11 0 .272-.09.453-.282.191-.181.373-.323.543-.413.181-.091.434-.303.766-.635.383-.081.877-.434 1.513-1.06.625-.634.938-1.25.938-1.864 0-.332-.183-.695-.544-1.088-.364-.393-.757-.595-1.19-.595-.364 0-.656-.061-.907-.172-.243-.12-.404-.181-.484-.181l-1.24.06c-.374 0-.767.07-1.17.203-.403.14-.725.21-.987.21-.577-.146-3.26 1.194-3.69 1.624l-.352.504c-.615.332-.938.725-.977 1.179-.041.454-.293.696-.767.736l-.615.504c-.282.555-.453.897-.534 1.028l-.675 1.25c-.121.333-.222.525-.303.585l-.413 1.532c-.04.162-.252.393-.636.696-.383.312-.575.907-.575 1.784 0 .322.132.514.383.584a.977.977 0 0 1 .565.333c.454 1.4.715 2.097.797 2.097l.352-.061c.243.887.645 1.33 1.21 1.33.141.06.332.162.564.293.243.142.454.212.655.212.353 0 .726-.061 1.12-.182l.534-.172c.04 0 .11.08.232.233.12.16.242.242.352.242l.827-.121c.06 0 .191-.051.392-.151l2.48-.887c.415-.273.687-.434.828-.464.14-.041.222-.081.262-.121.202-.182.534-.293.998-.353.463-.06.736-.282.837-.665.1-.383.272-.575.534-.575h.534l.17-.06c.183-.242.566-.495 1.16-.767a1.34 1.34 0 0 0 .303-.624c.05-.232.17-.353.373-.353.08 0 .12.02.12.06l.233.232c.08 0 .19-.081.323-.232.14-.161.311-.333.504-.534l1.007-1.15a.94.94 0 0 1 .483-.372c.191-.064.447-.268.752-.576.01.03.016.06.028.092-.04.162-.061.373-.061.645v.212c-.233.234 0 .21-.06.645l-.06.746-.05.353v.292c0 .333.11.645.332.927.232.293.341.444.341.464 0 .625.252 1.27.767 1.936.514.655.938.988 1.27.988.081 0 .282-.041.615-.121.323.16.595.262.846.292.244.04.424.1.546.18.12-.08.302-.12.564-.12.212 0 .483-.111.826-.352h.11c.244.04.374.059.415.059.1 0 .221-.06.352-.191a.812.812 0 0 1 .444-.222.43.43 0 0 0 .352-.261c.082-.162.272-.303.576-.413.311-.122.524-.263.635-.434a.9.9 0 0 1 .442-.343c.183-.06.353-.242.535-.555 1.185.152.566-.765 1.553-1.24.262-.14.513-.513.746-1.128l.302-.172.494-.121c.16-.352.382-.625.686-.816.291-.181.504-.393.633-.615.038-.072.087-.116.132-.17-.002.06-.007.113-.007.18v.212l.382.534c0 .04-.14.08-.442.11l-.061.183v.564l-.05.353v.292c0 .333.11.645.333.927.23.293.342.444.342.464 0 .625.251 1.27.766 1.936.513.655.936.988 1.27.988.08 0 .282-.041.614-.121.323.16.595.262.847.292.243.04.424.1.544.18.121-.08.304-.12.566-.12.212 0 .482-.111.826-.352h.11c.242.04.373.059.413.059.102 0 .222-.06.353-.191a.816.816 0 0 1 .444-.222.435.435 0 0 0 .354-.261c.08-.162.27-.303.573-.413.313-.122.524-.263.635-.434a.903.903 0 0 1 .445-.343c.18-.06.353-.242.534-.555l.474.06c0-.04.03-.06.09-.06.392-.695.716-1.108.987-1.24.262-.14.514-.513.746-1.128l.188-.106c.059.148.151.264.314.309.263.06-.29.915-.17 1.067.453 1.4.715 2.097.797 2.097l.352-.061c.243.887.645 1.33 1.21 1.33.14.06.333.162.564.293.243.142.454.212.655.212.353 0 .726-.061 1.12-.182l.534-.172c.04 0 .11.08.232.233.12.16.242.242.353.242l.826-.121c.06 0 .191-.051.392-.151l2.482-.887c.412-.273.684-.434.826-.464.14-.041.222-.081.262-.121.202-.182.534-.293.998-.353.463-.06.736-.282.837-.665.1-.383.272-.575.534-.575h.534l.17-.06c.183-.242.565-.495 1.16-.767.15-.181.262-.393.303-.624.05-.232.172-.353.373-.353.535 0 1.825-.785 1.924-1.2.09-.423.243-.735.424-.937.191-.211.282-.372.282-.494l-.151-.796.151-.766z" fill="#ED5613"/><g transform="translate(0 6.961)"><mask id="b" fill="#fff"><use xlink:href="#a"/></mask><path fill="#ED5613" mask="url(#b)" d="M55.222 18.243l.416-.6.098-.678.579-.568.502-1.092.578-.545.262-.83.383-.23.316-.48.447-.415.1-.765.415-.317.163-.38.252-.809.065-.055.35-.328.413-.73.547-.799.099-.928.73-1.376V4.811l.067-.862V3.85l-.58-1.66L60.082.814l-.863-.26-.447.031-.764.23-.611.032-1.028.546-1.146.415-.96.7-.547.131-1.245.927-1.245 1.027-.578.863-1.474.731-.864 1.245-1.026.644-.83.863-.666.612-.163.6-.611.35-.765.546-1.148 1.507-.928.58-.261 1.047-.48.294h-.317l-.033-.862.283-.514.165-.545 1.124-1.66.383-1.54.567-1.54.164-1.496.316-.579-.087-.196-.328-.25-.152-.929-.611-.71-.7-.6-.425-.165-1.43-.316h-.034l-.71.218-.666.197-.643.447-.644.033-.602.481-.448.316-.382.645-1.058.251-1.278 1.31-.994.36-.35.22-.261.61-.034.732-.284.262-.284-.229h-.033l-.098.033-.229.097-.764.765-1.245.863-.317.863-.13.196-.382.186-.383.033-.394.578-1.56 1.18-.383.644-1.376 1.572-.863.798-.84.513-.983 1.594-.71.382-1.409 1.256-.567.513-.514.797-.61.317-.067.612-.96.633.381-.666.48-1.725.481-.612.262-.546 1.41-2.27.284-.766.447-.349.993-1.987 1.148-1.31.512-.995.677-1.026.383-1.048.96-1.289.285-.83.197-.797-.744-1.79-.96-1.028-1.31-.316-.569.033-.677.12-1.212.098-.863.328-1.538.414-1.89.831-1.026.218-.797.611-1.563.58-1.059.862-1.19.098-.185.415-.285.098-1.343.601-.929.35-.644.48-1.147.415-3.363 1.638-.644.251-1.496 1.474-.229.448-.099.71.132.797.197.316.217.164.515.088.927.36h.131l.284-.065.928-.678.732-.796.066-.798.579-.317.447-.447 1.987-1.026 1.879-1.224 1.409-.982.579-.743.61-.065.732-.383.962-.284 1.572-.677.896-.185 2.107-1.19.895-.12 1.06-.296-.034 1.125-.578 1.081-.797 2.118-.928 1.213-.197.71-.732 1.463-.381.295-.131.098-.482 1.015-.284.678-.643.48-.382.994-.23.797-.6.382-.415.7-.645 1.124-.513 1.408-.6.7-.165.261-.098.35.066.797-.896.775.187.83-.732.251-.185.513-.23.416.031.764-.73.58-.678.545-.13.928-1.41 3.418-.054.295.054.316.329.284.098.896.534.392.23.318.699.218.546.066h.196l.732-.317.764-.317.393-.229.284-.284 3.037-4.16 1.343-1.377.328-.895.446-.098.482-.699.502-.48.36-.448.152-.383.034-.895.676-.328.547-.065.218-.35.163-.666.962-.775.186-.862 1.026-.579.48-.667 1.18-1.026.71-1.026.83-.634.317-.895.643-.284.514-.164.896-1.092.73-.546.613-.535.828-.415 2.142-1.802.994-.448.545-.665 1.114-.677.742-.699.666-.284.645-.23 1.245-1.059 1.06.065-.133.961-.382.514-.447 1.026-.928 1.376-.262 1.016-.447.545-1.345 2.337-.48.481-.218.317-.35.131-.229 1.06-.634.927-.895 2.621-.512.731.031 1.06-.229.731.264.71.218.634.894.578.546.23.033-.033.513-.229.633-.066 1.574-1.114.633-.349.099-.743.349-.218.23-.48.447-.197.25-.568.777-1.059.447-.382.514-.776.415-.218.6-.644 1.157-1.31.35-.667.611-.677.633-.382.928-1.18.809-.513.382-.709-.263-.285.547-.316.514.087.513-.502.6-.994.928-.61 1.06-1.028 1.604-1.343.983-.96.48-.219.743-.579.7-.219.676-.709 1.048-.579.427-.699 1.31-.229-.416 1.026-.546.797-.546.841.285.633-.96.612-.536 1.147-.611.644-1.694 2.752-.545.732.066.546-.645.611-.186 1.048-.546.361-.197.185-.065.164.099.928-.22.22h-.48l-.48.774.35.567-.678.034-.927 1.823-.7.71-.218.863-.71 1.408-.23 1.376-.382 1.89-.032.48.263 1.692.218.798.414.48.328.48.994.284-.066.514.731.316.71.58.318.163.927.13 1.114-.196.328-.284.218-.862.066-.546-.066-.415-.83-1.857-.284-.644.12-1.114.263-1.092.83-1.539.032-.929.383-.535.348-.48-.25-.808.731-.219.295-1.125.35-.25.447-.83.416-.382z"/></g><path d="M69.918 29.852c-.695.716-1.23 1.209-1.613 1.48-.071.244-.312.465-.716.697-.413.222-.654.554-.725.988-.302.14-.494.272-.595.413-.101.14-.363.302-.796.505l-.625.473c-.746.413-1.29.716-1.623.918a1.498 1.498 0 0 1-.595.513c-.252.132-.433.242-.534.353a.514.514 0 0 1-.292.192.5.5 0 0 0-.262.15l-.565.293c-.232.08-.393.16-.474.242-.081.08-.373.222-.867.424-.504.21-.836.312-.997.312-.373 0-.555-.484-.555-1.452 0-.15.11-.362.333-.635.23-.262.363-.554.403-.887.04-.322.18-.524.413-.615.232-.091.434-.201.595-.343l.2-.503c0-.06.264-.292.768-.706.14-.534.443-.877.917-1.038.796-.545 1.25-.967 1.39-1.27.243 0 .616-.192 1.13-.575a4.587 4.587 0 0 1 1.724-.806c.645-.162 1.078-.303 1.3-.434a1.64 1.64 0 0 1 .816-.191l.595.12.383-.06.413.202.565-.051.524.05.242-.14h.06c.07 0 .11.03.11.09 0 .152-.341.585-1.047 1.29zm80.174-1.12l.534-.151.615-.382.716.15.262-.15.444-.676.292-1.15-.232-1.006-1.07-.918-.553-.232-.303-.03-1.471.292-.625.323-.524.474-1.361 1.068-.322.474-1.16 1.149-.907.968-.685.503-.414.565-.383.413-.201.414-.948.675-.211.595-.323.474-.504.382-.887 1.059-.413.383-.524.504-.152.534-.504.09-.111.505-.624.232-.232.262h-.182l.15-.706.112-.564-.03-.111-.494-.474v-.353l.645-.302.09-.675.565-1.01-.03-1.5.464-.504.09-1.06.504-1.178.182-.867-.333-1.26-.937-.917-1.21-.333-.564.06-.414.182-.947.565-.565.23-.352.475-.706.383-.625.57-1.083.695-.681.65-.555.393-1.212 1.26-.445.443-4.501 3.458-1.441.655-.414.353-.625.293-.383.474h-.857l-.473.15-.111-.211.352-.383.03-1.331.354-.554-.152-.857.353-.393.242-.585.383-.383.444-1.39.584-1.654.242-1.361-.272-.967-.585-.716-1.008-.827-.826-.231-.323.03-.917.474-1.03.706-.623.594-.615.383-.363.494-1.764.857-2.016 1.653-.766.595-.337.473-.362.396-.74.552-.494.353-1.482 1.149-.826.382-.706.948-.211.232-.121.534-.555-.181-.504.474-.151.332-.645.353-.353.555-.625.18-.585.182-.09-.03-.182-.121-.322-.917-.444-.645-.03-.091-.03-.151.03-.172.595-.886.08-1.775.182-1.15.06-.472-.06-.474-.091-.565.06-.645-.231-.625-.303-.856-.292-.444-.948-.645-.524-.212-1.038-.262h-.03l-1.028.353-.746.212-1.825.967-.655.15-.585.535-.655.384-.352.443-.474.383-.938.414-.947 1.058-.595.333-.474.382-.201.11h-.121l-.152-.02-.171-.301.413-.827.12-1.683-.06-.524-.241-.625-.322-.504-1.12-1.27-.685-.171-.736-.122-.564.172-.615.534-.595.887-.555.262-.413.413-.655.122-.977.564-.525.474-1.592.967-.078.1c-.316.022-.623.256-.93.717-.313.484-.645.796-1.01.957-.362.162-.573.373-.634.636-.06.26-.231.393-.534.393l-.463.413a2.87 2.87 0 0 0-.626.746l-.292.11c-.121.04-.322.242-.605.605-.282.373-.735.625-1.36.787-.142-.121-.212-.363-.212-.736l.12-.827-.06-.736c0-.161.08-.342.253-.554.16-.201.252-.363.252-.484v-.06l.413-1.21c.04-.192.09-.373.17-.534 1.15-1.14 1.715-2.348 1.715-3.63 0-1.077-.424-1.622-1.271-1.622-1.18 0-1.955.363-2.318 1.079-.363.715-.645 1.078-.836 1.078-.161 0-.263-.181-.303-.534-.121-1.693-.786-2.54-2.005-2.54a.676.676 0 0 0-.303.06l-.474.232h-.05c-.303-.151-.484-.232-.565-.232h-.181c-.968.494-1.482.737-1.563.737h-.241c-.252 0-.605.13-1.05.382a7.47 7.47 0 0 1-1.36.635 3.533 3.533 0 0 0-1.24.786c-.363.353-.604.555-.725.595a8.917 8.917 0 0 0-2.248 1.653l-.887.887c-.494.333-.827.636-1.008.908a3.723 3.723 0 0 1-.706.816c-.292.262-.433.514-.413.756l-.292.383c-.121.08-.353.383-.696.928-.343.544-.524.856-.524.937l.06.797c-.373 0-.554.11-.554.352l.06.978v.17c-.04.082-.06.243-.06.475 0 .494.08.877.262 1.15l.292 1.218c.06.414.444.767 1.16 1.059.705.293 1.32.444 1.854.444.656 0 1.765-.524 3.337-1.562l.18-.182c.455-.232.797-.434 1.04-.595l2.237-1.824c.283-.202.504-.454.686-.756.17-.302.282-.474.322-.514l.565.06.292-.302c.1-.131.273-.252.534-.333.252-.091.404-.202.444-.343l.11-.181a2.54 2.54 0 0 0 .596-.524c.1-.383.23-.625.383-.747a.98.98 0 0 0 .726-.292c.21-.201.352-.292.433-.292.07 0 .11.06.11.172l-.171 1.45c0 .082.02.172.06.294.03.12.05.23.05.322a.3.3 0 0 1-.05.18.24.24 0 0 0-.06.173c0 .08.05.18.14.302.102.11.153.212.153.293l-.121.564c0 .393.09.695.27.927.173.222.274.404.294.545.02.14.09.262.202.383.342.04.665.13.978.282.312.15.654.222 1.027.222.08 0 .222-.051.434-.161.202-.112.524-.223.948-.343.423-.121.725-.272.927-.474l.06-.293c.273-.08.505-.171.706-.262.313-.363.605-.554.867-.594.272-.041.474-.212.625-.534.14-.313.433-.534.867-.676l.292-.413c.373-.262.605-.474.696-.655.09-.172.282-.343.574-.495l.212-.393.033-.244.733-.37.383-.676 1.36-.715.445-.474.493.06.565-.766.534-.06.887-.797-.151.686-.917 1.713-.112.767-.594.11-.645.857-.534.384-.151.715-.555.262-.413.595-.363 2.51.242 1.119.413.625.827.413.584.23.474-.674.625-.594.474-.262.443-.061.14-.503.798-.152.302-.706.323-.564.232-.02.382.352.656-.655.534-.292.08-.645.12-.272.657-.202.907-.716 2.903-2.39.172-.291.564-.413 1.209-.504 2.067-1.18.06-.03.232.09.272.263.08.202.03.917.032.715L98 33.54l.06.332-.201.323.17.474.032.504.272.826-.182.797-.03.11.322.827.353.596.867 1.178.293.182.554.172.978.563.705-.09.827.09.826-.563.746-.354.474-.675.675-.06.262-.646 1.039-.917.826-.655.504-.171.09-.061.828-.947 1.29-1.24.715-.917.167-.287.234-.066.353-.323.565-.474.322-.736.686-.241.796-.293.11-.091.243-.795.292-.152.443.212.565-.413.444-.122.473-.413.444.09.614-.382.263.06.15.263-.503 1.038-.171.736-.444.645-.383 1.33-.272.273-.141.937-.414 1.42-.09.596.12.857.263.937.09 1.24.09.272.586.525.413.27.706.293h.06l.474-.12.736-.03.625-.555.645-.06.534-.182.413-.322.414-.383.796-.212.353-.464.806-.443 1.502-1.361.766-.534.625-.585.474-.302.353-.494.524-.565.94-.947.299-.645h.04l.495-.625.504-.263.443-.685.8-.474.59-.937 1.01-.061.856-.564.202.534-.706 1.774-.745 3.367-.646 1.563-.181 1.007.363 1.532.262.475 2.006 2.267.766.242.443-.09.797-.796.745-.504.827-1.422.827-.645.413-.766.585-.474.332-.766.676-.262.2-.716.626-.151.09-.051.354-.564.12-.504.263-.322.504-.121.504-.555.585-.413.504-.716 1.038-.584.413-.625.2-.202.476-.242.674-.171.444-.625.686-.121.493-.322.565.09zM292.142 21.17c.03 0 .212-.082.524-.233l.383.232.664-.79c.262 0 .504-.12.737-.373.241-.24.716-.686.878-.767l.382-.18c.101-.173.688-.289 1.201-.62.512-.332.603-.692.845-.763l.676-.977c1.147-.355.582-.549 1.563-1.905.382-.544.574-.877.574-.988 0-.807-.494-1.21-1.482-1.21l-.876.962c-.08 0-.15-.05-.23-.142-.082-.1-.203-.15-.354-.15-.454 0-.766.15-.937.443-.172.292-.303.494-.404.595-.06.332-.21.705-.474 1.118-.252.414-.423.746-.493.988a1.028 1.028 0 0 1-.444.575 1.976 1.976 0 0 0-.594.624l-.293.293c-.595.413-.938.796-1.038 1.15-.726.432-1.372 1.09-1.372 1.381 0 .494.181.736.564.736" fill="#ED5613"/><g transform="translate(231 -.039)"><mask id="d" fill="#fff"><use xlink:href="#c"/></mask><path d="M23.9 8.577c.201-.353.563-.746 1.088-1.17.534-.423.897-.735 1.1-.927.19-.201.332-.322.412-.382 0-.122.141-.384.444-.797 0-.162-.092-.363-.253-.625-.17-.252-.252-.494-.252-.705 0-.353.314-.555.948-.595.625-.041 1.038-.081 1.24-.141.192-.061.333-.091.413-.091l.615.12.887-.06 2.187.11c.021 0 .151-.05.414-.17.171.04.281.06.322.06l1.21-.121h.232c.201 0 .312.02.352.06l1.271.535c.161.03.312.212.443.514.141.302.453.454.947.454.98 0 1.563-.061 1.745-.172.171-.121.352-.201.523-.251.182-.051.273-.091.273-.132.191-.08.342-.242.443-.473l.051-.595.181-.504-.12-.917c0-.353-.162-.696-.485-1.048-.322-.343-.817-.515-1.46-.515l-.647.12-.746-.06-2.006.232-.18-.171c-.394.212-.666.323-.827.323L34.111.33c-.08 0-.202.07-.354.212a.997.997 0 0 0-.24-.06l-2.129.292h-.059c-.152-.081-.252-.111-.293-.111h-.12l-.324.11-.826-.17c-.04 0-.303.09-.797.292l-.765-.121c-1.26 0-2.057.06-2.379.18-.323.122-.504.173-.545.173l-.292-.051h-.302c-.494 0-.857.09-1.089.293l-.353-.121-1.209.292h-.333c-.272.04-.484.15-.646.333a.45.45 0 0 0-.18-.061l-.676.06c-.313 0-.716.07-1.209.233-.313-.081-.494-.121-.535-.121h-.17c-.223 0-.485.18-.808.534l-.17-.181c-.576.24-.959.363-1.15.363-.322 0-.585.09-.817.272-.22.19-.453.282-.695.282h-.11c-.182-.081-.293-.111-.333-.111l-2.682.827c-.303.11-.555.2-.786.24a1.324 1.324 0 0 0-.606.344c-.18.182-.462.303-.856.373-.393.07-.695.19-.896.363-.212.182-.384.282-.536.303-.15.02-.34.11-.574.292-.24.18-.524.262-.856.262l-.595-.061-.494.413-1.159.505c-.908.433-1.46.655-1.684.655-.847.21-1.472.826-1.885 1.824L0 10.754c0 1.2.483 1.805 1.451 1.805.081 0 .162-.071.252-.212.091-.131.272-.323.545-.575a3.02 3.02 0 0 0 .685-.866c.171-.333.313-.555.413-.646.172-.02.343-.1.514-.221.172-.131.343-.222.535-.283.181-.06.383-.211.605-.463.212-.242.392-.363.534-.363l.352.06h.121c.111 0 .283-.08.484-.242.212-.151.393-.262.545-.322.161-.06.322-.151.473-.283.161-.12.323-.221.494-.281.162-.051.363-.162.605-.323l.534.06c.04 0 .303-.121.807-.353.504-.241.907-.352 1.2-.352h.352c.414-.061.726-.222.948-.474.211-.252.453-.383.705-.383h.06l.535.12c.111 0 .463-.141 1.028-.402a7.007 7.007 0 0 1 1.814-.545c.646-.1.968-.171.968-.211.333-.232.614-.353.857-.353l.766.12.262-.06.352-.353h.656c.212-.141.343-.232.383-.262.192 0 .473-.06.827-.181l.504.12h.171l.534-.12h.232c.383-.121.646-.182.807-.182.15 0 .231.04.231.12 0 .183-.16.334-.473.475-.313.14-.525.343-.635.625a1.532 1.532 0 0 1-.485.655c-.22.172-.493.495-.826.968l-.473.494c-.908.595-1.493 1.29-1.745 2.096a3.255 3.255 0 0 0-.736.747c-.2.272-.362.453-.493.544-.12.09-.232.272-.303.544l-.413.474c-.12.19-.464.544-1.038 1.028l-.172 1.099c-.04.393-.242.594-.614.615-.363.02-.767.373-1.21 1.038-.443.665-.907 1.31-1.38 1.935-.485.615-.797 1.14-.948 1.553-.152.413-.233.655-.253.735-.14.04-.262.152-.383.353-.433.272-.685.585-.766.918l-.503.826c-.353.373-.535.635-.535.797l.121 1.028c-.262.282-.373.433-.353.474-.514.14-.927.604-1.239 1.4a40.606 40.606 0 0 1-.625 1.513 2.624 2.624 0 0 0-.202.544c-.495.353-.747.816-.747 1.39 0 .233.031.434.092.586-.1.04-.162.13-.202.272-.16.312-.484.826-.968 1.532-.473.705-.715 1.542-.715 2.51 0 .312-.04.554-.122.726-.08.16-.13.332-.15.484-.02.16-.08.493-.202 1.017-.12.525-.182.827-.182.908 0 1.37.333 2.459 1.008 3.245.666.787 1.412 1.18 2.248 1.18l.615-.06h.232c.655-.192.978-.595.978-1.21 0-.273.05-.495.151-.665.101-.162.141-.383.141-.665a1.3 1.3 0 0 0-.19-.636c-.122-.222-.193-.373-.193-.454 0-.12.03-.242.091-.352l.595-1.653.171-1.271c.343-1.17.524-2.016.564-2.54.121-.161.222-.322.292-.473l.121-.242c.353-.394.696-1.05 1.02-1.956a45.77 45.77 0 0 1 .795-2.087c.212-.473.333-1.078.373-1.834.222.04.625-.514 1.21-1.683.04-.766.161-1.331.352-1.704 1.381-1.603 2.067-2.56 2.067-2.903l.06-.293c.393-.745.595-1.168.595-1.27 0-.04.201-.262.614-.675l.354-.595c.182-.433.413-.775.716-1.028l-.12-.856c0-.243.09-.353.26-.353h.413l.354-.413.353-.182c.674-.967 1.078-1.472 1.21-1.532l.271-.716a.471.471 0 0 0 .172-.353c0-.131.02-.221.06-.262l.242-.242c.13-.272.382-.574.736-.907.271 0 .514-.181.705-.534" fill="#ED5613" mask="url(#d)"/></g><path d="M307.608 20.825c.252 0 .585-.11.978-.323.544.252.501.384.996.384a.576.576 0 0 0 .382-.122l.292-.322 1.453-1.069c.644-.413 1.128-.736 1.43-.987.303-.242.595-.384.867-.424.047-.046.266-.284.453-.502-.066.015-.122.03-.15.03-.08 0 .436-.508.415-.387-.008.047-.13.198-.265.357.28-.067.817-.205 1.021.187.242.484.444.786.606.918.161.121.272.252.352.393.08.14.201.292.373.473.161.182.252.283.252.323.11.181.574.383 1.381.625.393-.12.07.385.148.385h.112c.261.04.423.061.504.061.312 0 .473-.222.473-.676 0-.16-.18-.524-.534-1.098l-.292-.585c-.142-.454-.293-.816-.474-1.099a2.567 2.567 0 0 1-.353-.866 2.142 2.142 0 0 0-.402-.887 5.454 5.454 0 0 1-.515-.918c-.142-.322-.222-.504-.263-.544l-.533-.534c-.252-.313-.129-.474-.764-.474-.564 0-1.098.403-1.592 1.21-1.099.473-2.027 1.28-2.773 2.42-.453.18-.765.362-.917.533l-1.333.917c-.262.02.043.192-.239.514-.273.333-.454.525-.555.585-.635.231-.947.544-.947.938 0 .373.141.564.413.564" fill="#ED5613"/><g transform="translate(333 20.961)"><mask id="f" fill="#fff"><use xlink:href="#e"/></mask><path d="M25.886 8.645c.383-.786.756-1.27 1.118-1.461a6.7 6.7 0 0 0 1.119-.736c.383-.303.616-.474.696-.514l.353-.182.504-.121c.353-.232.574-.353.645-.353h.685c.313-.191.544-.292.706-.292.373 0 .565.121.565.353 0 .121-.172.242-.515.352-.353.121-.685.444-1.027.978l-.293.121c-.152.192-.393.394-.726.605-.322.202-.504.343-.544.423l-.232.243c-.615.393-1.078.725-1.402.997a4.884 4.884 0 0 1-1.048.686l-1.007.443c-.121 0-.182-.06-.182-.181s.19-.574.585-1.361zm12.619.875c0-.293-.131-.444-.384-.444a.44.44 0 0 0-.322.131c-.1.091-.241.171-.434.242-.18.06-.301.302-.342.716l-.825.696c-1.436.462-.391 1.022-1.333.846-.064-.013-.17.05-.271.151a11.5 11.5 0 0 1-.585.444 3.493 3.493 0 0 0-.695.635 1.072 1.072 0 0 1-.686.393c-.282.04-.473.161-.585.352-.1.202.144.461-.28.551-.71.153-.406.417-.74.557-1.361.566-1.414.763-1.447.831-.48-.199-1.437.032-1.875.292a1.942 1.942 0 0 1-1.048.292l-1.421.212c-1.038 0-1.563-.282-1.563-.857 0-.04.04-.242.12-.605.072-.363.132-.665.172-.897.313-.202.626-.302.918-.302l.584-.615.303.06.383-.363c.312-.03.473-.171.473-.413 0-.212.072-.423.233-.615.23.081.373.121.413.121.252 0 .746-.363 1.472-1.098.322 0 .524-.122.625-.384.1-.252.312-.493.645-.705l.534.06c.372-.766.715-1.159 1.038-1.159.07 0 .13.03.17.081.042.05.102.07.183.07.11 0 .272-.09.454-.282.19-.181.372-.323.544-.413.182-.091.433-.303.765-.635.384-.081.878-.434 1.513-1.059.625-.635.938-1.25.938-1.865 0-.332-.182-.695-.545-1.088-.363-.393-.756-.595-1.19-.595-.362 0-.655-.06-.907-.171-.241-.121-.403-.182-.483-.182l-1.241.061c-.373 0-.765.07-1.168.202-.404.14-.726.211-.99.211l-.472-.121c-.04 0-.08.02-.111.06-.121.162-.353.333-.685.535-1.321.474-2.127.857-2.42 1.149l-.353.504c-.614.332-.937.726-.977 1.179-.04.454-.292.696-.766.736l-.615.504c-.282.555-.453.897-.534 1.028l-.676 1.25c-.121.333-.222.525-.302.585l-.004.013a6.928 6.928 0 0 0-.683.489c-.737.725-1.26 1.199-1.593 1.411a7.277 7.277 0 0 0-.907.695 2.687 2.687 0 0 1-.857.544 3.503 3.503 0 0 0-.928.575 2.822 2.822 0 0 1-.988.574 4.93 4.93 0 0 0-.887.414 2.532 2.532 0 0 1-.856.353c-.322.08-.564.181-.727.312-.15.131-.252.192-.292.192l-.413-.121c-.252.121-.403.181-.443.181-.767 0-1.15-.151-1.15-.443 0-.121.07-.272.222-.474.152-.191.263-.414.343-.666.07-.241.15-.403.232-.483l.242-.353c.15-.333.272-.564.363-.675.09-.121.13-.202.13-.242v-.535c0-.151.203-.302.596-.443a5.85 5.85 0 0 0 .615-1.059l.302-.201c1.039-1.341 1.704-2.076 1.975-2.218.333-.534.505-1.058.505-1.592 0-.202-.142-.716-.434-1.563-.282-.846-.504-1.411-.666-1.683l-.171-.444C15.159 1.506 14.535.79 13.346.79c-.998 0-1.865.363-2.591 1.089-.161.202-.312.343-.443.413-.142.081-.233.162-.273.242-.413.514-1.098 1.049-2.066 1.623l-.171.383-.444.121-.353.413c-.473.152-.917.454-1.32.898-.403.443-.756.725-1.06.856-.311.131-.503.293-.573.484-.081.202-.282.323-.595.353-.312.04-.816.353-1.492.917C1.29 9.157.948 9.923.948 10.891c0 .473.15.705.443.705.514 0 .856-.131 1.048-.383.18-.252.363-.443.513-.565l.596-.141c.332-.161.534-.241.614-.241.243-.313.474-.585.716-.827a.803.803 0 0 0 .676-.322c.16-.212.252-.333.292-.353.615-.161.978-.263 1.099-.293.11-.04.252-.252.413-.625l.494-.232c.242-.322.524-.554.847-.695.322-.151.534-.272.634-.373.102-.101.364-.242.786-.443.424-.192.686-.394.807-.605.12-.202.232-.303.323-.303.514 0 .776.283.776.847 0 .081-.08.262-.242.534-.121.041-.211.192-.293.464-.08.262-.14.413-.181.454l-.383.534c-.121.373-.282.685-.504.937-.212.263-.604.958-1.18 2.097-.12.514-.271.887-.453 1.108-.191.232-.302.444-.342.636-.04.201-.141.493-.292.907-.162.403-.243 1.068-.243 2.016 0 .161.112.443.333.847.21.402.393.796.524 1.189.14.393.555.787 1.26 1.179.696.394 1.058.595 1.079.595l.856-.061.464-.151c.06 0 .212.071.443.212l.716-.383.858-.181c1.038-.726 1.672-1.089 1.884-1.089.313 0 .474-.141.474-.413v-.061l-.182-.292c0-.182.12-.272.353-.272h.12l.183.06c.04 0 .18-.08.443-.231l.11-.293c.04-.282.122-.413.243-.413.04 0 .12.03.232.111.12.08.2.121.242.121.07 0 .232-.121.453-.373.222-.242.646-.595 1.26-1.049.224-.167.41-.318.597-.469.033.195.086.371.18.491.455 1.401.717 1.862.798 1.862l.353.689c.242.887.644 1.331 1.21 1.331.14.06.332.161.563.293.242.14.454.21.655.21.354 0 .727-.06 1.12-.18l.534-.172c.04 0 .11.081.232.231.12.162.24.243.353.243l.826-.122c.06 0 .19-.049.393-.151.679-.242 1.384-.325 1.87-.507 1.117-.418 1.629-.807 1.938-.917.182-.242.565-.494 1.159-.765a1.34 1.34 0 0 0 .303-.625c.05-.232.17-.353.373-.353.08 0 .12.02.12.06l.233.232c.08 0 .19-.08.322-.232.14-.161.312-.332.505-.534l1.008-1.149a.928.928 0 0 1 .483-.373c.212-.071.494-.292.847-.666h.18c.153-.04.284-.271.384-.695.09-.423.242-.736.424-.937.19-.212.282-.373.282-.494l-.151-.796.15-.766z" fill="#ED5613" mask="url(#f)"/></g><path d="M312.061 29.444c-.695.716-1.23 1.21-1.613 1.482-.07.241-.313.463-.716.695-.413.222-.655.555-.726.988-.3.14-.494.273-.594.413-.1.142-.363.303-.796.505l-.625.474c-.746.413-1.29.715-1.623.916a1.5 1.5 0 0 1-.595.514c-.252.132-.434.242-.534.352a.514.514 0 0 1-.292.192.502.502 0 0 0-.263.151l-.564.294c-.232.08-.393.16-.474.24-.08.082-.373.223-.867.425-.504.212-.836.312-.997.312-.373 0-.555-.483-.555-1.451 0-.151.11-.363.333-.636.231-.263.362-.555.402-.888.041-.322.182-.522.414-.613a2.02 2.02 0 0 0 .595-.343l.201-.505c0-.06.262-.291.766-.704.142-.535.443-.877.918-1.04.796-.543 1.25-.966 1.391-1.27.242 0 .615-.191 1.128-.573a4.596 4.596 0 0 1 1.724-.807c.646-.162 1.08-.302 1.301-.433.231-.131.504-.192.816-.192l.595.12.383-.06.413.201.564-.05.525.05.242-.14h.06c.071 0 .111.03.111.09 0 .152-.343.585-1.048 1.29m-45.229-10.762c.432-.806 1.064-1.56 1.166-1.765.336-.69.234-1.17.453-1.28l.28-.078.023-.582c.218-.143 1.066-1.295 1.08-1.335l.877-2.44c.194-.117 1.424-2.706 1.524-2.706.231 0 1.221-.52 1.221-.377 0 .075-.362 2.617-.575 2.687-.668.229-.686 3.036-1.412 3.29-.094.118-.428 1.306-.634 1.437-.199.125-.496.823-.52.872l-.683.15c-.38.244-1.206 1.527-1.405 1.696-.206.174-.917 1.591-1.148 1.704l-1.104 1.436c-.074 0-.154-.28-.154-.354 0-.044.42-1.25 1.011-2.355m20.64 10.642c.382-.787.755-1.27 1.118-1.463a6.55 6.55 0 0 0 1.12-.735c.382-.302.614-.474.695-.515l.352-.18.504-.122c.354-.232.575-.352.646-.352h.685c.313-.191.544-.293.705-.293.373 0 .565.122.565.354 0 .12-.17.242-.514.352-.352.122-.685.444-1.028.977l-.292.122c-.152.192-.394.392-.727.605-.322.201-.504.343-.544.424l-.23.241c-.616.393-1.08.727-1.403.997a4.953 4.953 0 0 1-1.047.687l-1.009.442c-.12 0-.18-.06-.18-.18 0-.122.191-.575.583-1.361m45.687 7.977c.056-.216-1.076-.403-1.076-.514 0-.44-.865-.51-1.096-.802-.513-.639.053-1.74-.349-2.19-.582-.662-.182-1.575-.302-1.968-.178-.589-.068-.904.246-1.2.403-.38.195-.474.293-.814l.071-.242a2.292 2.292 0 0 1-.06-.332c0-.05.14-.555.423-1.503l-.12-.473c0-.291.12-.564.352-.797l.09-.23c0-.162.031-.273.091-.334.05-.05.131-.261.232-.634.1-.363.261-.706.473-1.029.222-.322.434-.625.656-.907l.524-.796a2.49 2.49 0 0 0 .504-.485c.438-.486.271-.23.211-.544.131-.393.653-1.572 1.087-1.683l1.238-1.878c.191-.131.66-.451.66-.492.291-.706.694-.593 1.21-.855l1.511-.293c.292-.08.483-.12.555-.12l.715-.111c.978-.303 1.501-.444 1.563-.444.14 0 .311-.04.533-.121a1.77 1.77 0 0 1 .615-.122c.081 0 .121.021.121.061.413.535.656.797.736.797.454 0 .907-.293 1.361-.887l1.36-1.713c.112-.373.273-.707.454-.998.192-.293.283-.505.283-.626 0-.564-.324-.857-.978-.857h-.11l-.414.183c-.696.04-1.159.14-1.41.312-.244.16-.405.252-.486.252l-.23-.091h-.364c-.333.13-.565.211-.706.232-.14.02-.463.13-.988.322-.523.201-.806.303-.836.303-.14 0-.312-.06-.504-.181l-2.062.335c-.313.16.671-2.458.671-2.542 0-.668.02-.021.698-.838.173-.209.04-.534.131-.806.1-.262.151-.403.151-.423l-.293-1.12c-.2-.948-.544-1.42-1.038-1.42-.373 0-.847.342-1.44 1.037-.172.373-.414.555-.706.555-.06 0-.13.102-.233.312-.1.203-.19.364-.26.454-.344.717-.678 1.202-1.009 1.452-.332.25-1.202 2.932-1.464 3.497-.263.554-.474.836-.636.836l-.474-.06c-.04 0-.09.02-.15.06-.06.042-.212.102-.464.182-.242.07-.554.212-.918.393a2.702 2.702 0 0 1-1.26.282h-.06c-.429.242-.526.29-.532.27-.006-.02-.235.2-.284.158-.16-.13-.666.518-1.417.383-3.259.789-2.285.06-3.05.508-.598.348-1.544.93-1.288 1.211a3.762 3.762 0 0 0 2.42 1.165c1.747.157 1.3.037 1.711-.015l.25-.031.152-.046c.595-.372.813-.53 1.982-.631.722-.389 1.092.119 1.575-.296.082.081.367.081.407.162-.04.534-1.11 1.567-1.473 2.172-.362.596-.614 1.078-.756 1.431-.13.354-.765 1.16-1.885 2.43-1.128 1.27-1.904 2.046-2.328 2.319-.424.282-.655.665-.695 1.159l-.15.11h-.234l-.18.122-.05.241-.304.171c-.332 0-.523.252-.564.736l-.11.121c-.162 0-.364.151-.596.453a4.602 4.602 0 0 1-.468.508c-.296.045-.586.273-.875.707-.03.047-.062.084-.092.128-.259.232-.4.4-.439.509a1.852 1.852 0 0 1-.477.32c-.363.162-.575.374-.635.635-.06.262-.232.393-.535.393l-.463.413a2.866 2.866 0 0 0-.625.746l-.293.111c-.12.04-.322.242-.604.605-.283.373-.736.625-1.36.786-.142-.12-.213-.362-.213-.735l.121-.826-.06-.737c0-.162.081-.343.252-.555.161-.2.252-.361.252-.482v-.061l.413-1.21c.04-.191.091-.373.172-.534 1.148-1.14 1.713-2.348 1.713-3.63 0-1.078-.423-1.622-1.27-1.622-1.18 0-1.956.363-2.318 1.078-.363.716-.646 1.078-.837 1.078-.16 0-.262-.18-.303-.534-.12-1.692-.786-2.54-2.006-2.54a.656.656 0 0 0-.3.061l-.475.232h-.05c-.304-.152-.485-.232-.565-.232h-.182c-.968.493-1.48.736-1.562.736h-.243c-.252 0-.604.132-1.048.383a7.511 7.511 0 0 1-1.36.636 3.501 3.501 0 0 0-1.24.785c-.363.354-.605.555-.726.596a8.904 8.904 0 0 0-2.248 1.652l-.02.021-.043.02c-.182.06-.869.303-.91.716-1.142.736-1.69 1.541-2.158 1.541-.07 0-.17.05-.27.151a11.5 11.5 0 0 1-.586.445 3.466 3.466 0 0 0-.695.634 1.068 1.068 0 0 1-.686.393c-.282.04-.474.162-.585.354-.1.2-.372.342-.796.433-.423.09-.756.382-.988.896l-.12.062h-.414c-.13 0-.282.08-.444.241l-.23.201c-.162.081-.283.232-.355.474l-.3.183c-.213 0-.516.11-.889.352-.372.231-.624.503-.766.795l-.292-.12c-.242.08-.413.12-.534.12-.373 0-.725.102-1.049.294a1.93 1.93 0 0 1-1.047.291l-1.422.212c-1.038 0-1.563-.282-1.563-.857 0-.04.041-.242.121-.605.071-.362.131-.664.172-.896.313-.201.625-.302.917-.302l.585-.615.302.06.384-.363c.312-.03.473-.172.473-.413 0-.212.071-.424.232-.616.231.081.373.122.413.122.253 0 .746-.364 1.471-1.099.323 0 .525-.12.625-.383.102-.252.313-.494.646-.705l.534.06c.373-.767.716-1.16 1.038-1.16.071 0 .131.032.172.082.04.05.101.07.181.07.111 0 .272-.091.454-.282.191-.181.373-.323.544-.413.181-.091.433-.303.766-.636.383-.08.877-.434 1.512-1.058.625-.636.938-1.25.938-1.866 0-.332-.182-.695-.544-1.088-.364-.393-.756-.595-1.19-.595-.363 0-.655-.06-.908-.17-.24-.122-.402-.183-.483-.183l-1.24.061c-.373 0-.766.072-1.17.203-.403.14-.725.21-.987.21l-.474-.12c-.04 0-.08.02-.11.06-.122.162-.353.332-.686.534-1.32.474-2.127.857-2.419 1.15l-.353.504c-.615.332-.937.726-.978 1.18-.04.453-.292.695-.766.735l-.615.503c-.282.556-.453.898-.534 1.03l-.153.282c-.548.226-1.419.814-2.726 1.93-.696.575-1.102.934-1.182 1.105-.443.394-.989.442-1.24.513-.253.07-.385.14-.385.221a5.524 5.524 0 0 0-.796.857c-.19.273-.403.394-.615.352-.362.353-.574.535-.655.535-.192 0-.292-.102-.292-.292l.06-.625-.12-.767.12-.565c0-.11.131-.574.413-1.38.273-.806.434-1.33.474-1.573l.323-1.44.232-1.835c.1-.806-.192-1.401-.887-1.784-.686-.383-1.37-.575-2.057-.575l-.443.06-.242-.06h-.17c-.243 0-.707.122-1.393.373-.685.241-1.138.453-1.37.634-.223.172-.565.373-1.028.605-.464.223-.827.515-1.079.878-.262.373-.464.553-.625.553-.17 0-.323.152-.453.474-.132.314-.445.494-.958.556a.774.774 0 0 0-.182.352.69.69 0 0 1-.292.413l-.292-.06a3.984 3.984 0 0 1-.504.364l-.293.2c-.2.353-.443.636-.726.826-.282.203-.644.596-1.088 1.18-.444.595-.726.888-.847.888-.11 0-.17-.061-.17-.171 0-.041.19-.505.584-1.392.282-.332.504-.775.665-1.32.171-.535.464-1.09.877-1.664l.413-.887c.191-.645.333-1.029.413-1.15 1.451-2.046 1.787-2.207 1.8-2.22l.343-.413c-.196-.534.498-1.085.72-1.085l.474-.273c.151-.252.292-.423.413-.494l.232-.242 2.752-3.93c.231-.646.494-1.11.796-1.382.292-.282.464-.634.514-1.069.051-.433.111-.684.191-.766.807-1.118 1.21-2.207 1.21-3.245 0-.261.202-.483.595-.685l.444-2.651c.231-.787.352-1.21.352-1.27 0-.474-.17-1.029-.514-1.654-.353-.635-.907-.947-1.673-.947-.393 0-.686.181-.867.545-.192.362-.373.614-.554.756-.172.14-.323.362-.453.675a3.262 3.262 0 0 1-.566.908 8.89 8.89 0 0 0-.806 1.158c-.302.494-.503.837-.625 1.038l-.353.615c-.332.394-.584.796-.735 1.2-.162.403-.283.624-.353.665-.776 1.008-1.34 1.966-1.704 2.893-.362.928-.635 1.552-.807 1.875-.18.323-.3.575-.362.735-.05.172-.464 1.05-1.24 2.652-.766 1.29-1.149 2.127-1.149 2.48v.261l-.12.122-.263.06-.232.463c0 .162-.12.303-.352.424-.142.565-.525 1.422-1.16 2.56-.1.06-.615.534-1.542 1.421s-1.42 1.401-1.482 1.532c-.067.136-.78.897-1.316 1.128-.578.25-.989-.033-1.255.03l-.243.323c-.257.313-.854 1.25-1.002 1.599-.205.482-.29.392-.29.94 0 .797.193.886.533.971.707.178 2.051-.6 3.624-1.653-.182 1.008-.424 1.733-.737 2.177-.322.443-.594 1.047-.846 1.824-.24.786-.373 1.18-.373 1.2l.06.534-.17.614c0 .02.12.334.382.918.252.596.595.886 1.008.886.071 0 .191-.06.333-.18.151-.11.373-.262.665-.453.303-.194.534-.476.695-.858.172-.383.283-.584.343-.604.061-.021.494-.454 1.301-1.301.807-.848 1.21-1.31 1.21-1.382.04-.654.281-.977.715-.977.071 0 .161.02.252.07a.45.45 0 0 0 .191.081c.071 0 .191-.19.354-.584.151-.384.443-.596.856-.636l.292-.553c.515-.123.837-.373.98-.767l.472-.15.232-.474c.121-.042.373-.213.755-.514.384-.303.656-.454.817-.454a2.473 2.473 0 0 1 1.27-.776c.535-.445.796-.756.796-.907v-.061l.737.11a2.13 2.13 0 0 0 .473-.654c.121-.253.262-.373.413-.373.04 0 .192.06.444.18.041.072.161.122.363.142.191.02.292.181.292.473l-.06.415.06.735c0 .202-.02.313-.06.353-.14.392-.313 1.24-.535 2.54l-.292 1.804c0 .09.061.282.182.554l-.273.414.152.625-.06.584c0 .121.07.282.2.495.142.202.273.483.394.855.111.363.322.596.625.688.312.1.544.22.695.361.161.131.282.203.353.203.716 0 1.17-.091 1.391-.264.212-.18.524-.383.927-.604.403-.232.606-.364.606-.404 0-.432.08-.645.231-.645l.595.051c.1-.13.403-.413.917-.846 0-.364.202-.706.615-1.038.716.104 1.757-.68 2.711-1.706-.064.285-.018.523.065 1.6-.095 1.424.762 2.35.843 2.35l.353.467c.242.888.645 1.33 1.21 1.33.14.06.332.161.564.292.241.142.453.212.654.212.354 0 .727-.06 1.12-.181l.534-.172c.041 0 .111.08.232.233.5.663 3.33-.66 4.052-.918.413-.273.685-.434.827-.464.141-.04.222-.08.262-.12.2-.18 2.256-1.593 2.37-1.593h.533l.171-.06c.18-.24.556-.488 1.137-.755l.018.29v.172c-.04.08-.06.242-.06.474 0 .494.08.878.261 1.15l.292 1.219c.061.413.445.766 1.16 1.059.706.291 1.32.442 1.855.442.655 0 1.764-.524 3.336-1.562l.182-.181c.453-.232.796-.434 1.038-.596l2.238-1.823a2.47 2.47 0 0 0 .685-.756c.171-.302.283-.474.323-.514l.564.06.292-.303c.101-.13.273-.252.534-.332.252-.09.404-.201.444-.343l.111-.181c.242-.151.434-.332.595-.524.1-.384.231-.626.383-.747a.977.977 0 0 0 .725-.293c.212-.2.353-.29.434-.29.07 0 .111.06.111.17l-.172 1.453c0 .08.021.17.061.291.03.121.051.232.051.322a.298.298 0 0 1-.05.181.242.242 0 0 0-.062.172c0 .08.051.182.142.304.101.11.151.21.151.291l-.12.564c0 .393.09.697.271.928.172.221.272.404.293.544.02.142.09.263.201.384.343.04.665.13.977.282a2.32 2.32 0 0 0 1.03.221c.08 0 .22-.05.432-.16.201-.112.525-.223.948-.343.423-.121.725-.272.927-.474l.061-.293c.272-.08.504-.172.705-.261.312-.364.605-.555.867-.596.273-.04.474-.212.625-.534.141-.313.434-.534.867-.675l.292-.413c.373-.263.605-.474.696-.656.09-.17.282-.343.575-.494l1.111-.956a1.375 1.375 0 0 1-.227-.098c.286-.105.46-.376.52-.805l.12-.06c.413 0 .737-.212.978-.624.232-.415.554-.646.978-.707.544-.887.877-1.35.968-1.39.12.04.201.08.241.12l.233-.413c.301-.212.544-.442.745-.674.192-.244.353-.354.474-.354.071 0 .111.01.111.05-.273.284-.413.434-.413.475v.916l-.5.83-.026.503-.016.274-.013.338-.06 1.02c0 .26.158 1.802.374 3.595.132 1.1.343 2.178.546 2.781.511 1.518 3.976 1.724 5.025 1.724.191 0 .764-1.288 1.05-1.538.28-.244-.428-.678-.413-.947.016-.258-1.149-.006-1.093-.224" fill="#ED5613"/></g></svg>
